<svg width="84" height="25" viewBox="0 0 84 25" fill="none" xmlns="http://www.w3.org/2000/svg">
<path fill-rule="evenodd" clip-rule="evenodd" d="M9.08805 4.43604V11.1628H2.92581V4.43604H0V20.4935H2.92581V13.9852H9.08805V20.4935H12.0137V4.43604H9.08805Z" fill="#EC6744"/>
<path fill-rule="evenodd" clip-rule="evenodd" d="M21.3771 15.303C21.3771 16.643 20.2934 17.7294 18.9568 17.7294C17.6201 17.7294 16.5364 16.643 16.5364 15.303V8.42529H13.7612V15.303C13.7617 18.1768 16.0859 20.5062 18.9525 20.5058C21.8186 20.5053 24.1418 18.1762 24.1423 15.303V8.42529H21.3771V15.303Z" fill="#EC6744"/>
<path fill-rule="evenodd" clip-rule="evenodd" d="M41.9384 9.13372C41.9384 7.72398 42.8687 7.27706 43.8879 7.27706C44.7094 7.27706 45.7944 7.90361 46.504 8.66381L48.3216 6.51687C47.4142 5.28676 45.5736 4.43604 44.0671 4.43604C41.0569 4.43604 38.8794 6.20359 38.8794 9.13372C38.8794 14.57 45.5077 12.8456 45.5077 15.8878C45.5077 16.826 44.5989 17.6554 43.5582 17.6554C41.9169 17.6554 41.3851 16.8506 40.6311 15.9998L38.6143 18.1023C39.9044 19.6902 41.4955 20.4962 43.402 20.4962C46.2618 20.4962 48.5624 18.7073 48.5624 15.9108C48.5624 9.87523 41.9341 11.7506 41.9341 9.13372" fill="#EC6744"/>
<path fill-rule="evenodd" clip-rule="evenodd" d="M82.9435 17.9285C81.3038 17.9285 80.8379 17.2172 80.8379 16.1279V11.3065H83.3864V8.86352H80.8379V5.64038L78.0239 6.90641V16.7271C78.0239 19.2389 79.7527 20.5051 82.1236 20.5051C82.4954 20.5119 82.8671 20.4821 83.2332 20.416L83.9197 17.8825C83.6101 17.9039 83.2546 17.9255 82.9435 17.9255" fill="#EC6744"/>
<path fill-rule="evenodd" clip-rule="evenodd" d="M31.9231 17.7041C30.1815 17.7041 28.7695 16.2887 28.7695 14.5427C28.7695 12.7966 30.1815 11.3812 31.9231 11.3812C33.6647 11.3812 35.0767 12.7966 35.0767 14.5427C35.0767 16.2887 33.6647 17.7041 31.9231 17.7041ZM31.9404 8.50564C30.5658 8.50564 29.6068 8.90514 28.6794 9.81766V4.53223H25.8999V14.3285C25.8999 17.9959 28.5446 20.5078 31.5161 20.5078C34.8131 20.5078 37.7129 17.9513 37.7129 14.5082C37.7129 11.1081 35.0439 8.50708 31.9404 8.50708" fill="#EC6744"/>
<path fill-rule="evenodd" clip-rule="evenodd" d="M59.4884 14.3272C59.4884 16.0732 58.0764 17.4887 56.3348 17.4887C54.5931 17.4887 53.1812 16.0732 53.1812 14.3272C53.1812 12.5812 54.5931 11.1657 56.3348 11.1657C58.0764 11.1657 59.4884 12.5812 59.4884 14.3272ZM62.1202 14.3617C62.1202 10.9128 59.226 8.36206 55.9234 8.36206C52.9518 8.36206 50.3071 10.874 50.3071 14.5413V24.3434H53.0866V19.0508C54.0126 19.9618 54.973 20.3628 56.3462 20.3628C59.4495 20.3628 62.1187 17.7632 62.1187 14.3617" fill="#EC6744"/>
<path fill-rule="evenodd" clip-rule="evenodd" d="M70.1415 17.4313C68.4251 17.4313 67.0337 16.0364 67.0337 14.3157C67.0337 12.5951 68.4251 11.2003 70.1415 11.2003C71.8579 11.2003 73.2492 12.5951 73.2492 14.3157C73.2492 16.0364 71.8579 17.4313 70.1415 17.4313ZM71.0717 8.3176V5.54684C71.8173 5.19793 72.2952 4.44909 72.2989 3.62408V3.55956C72.2956 2.38377 71.3458 1.43159 70.1731 1.42843H70.1086C68.9359 1.43159 67.9859 2.38377 67.9827 3.55956V3.62408C67.9864 4.44909 68.4643 5.19793 69.2098 5.54684V8.3176C68.1597 8.47855 67.1706 8.91469 66.3429 9.58205L58.7543 3.66288C58.8083 3.46773 58.8371 3.26626 58.8403 3.06378C58.8418 1.73596 57.7693 0.658321 56.4448 0.65674C55.1205 0.655016 54.0455 1.73021 54.0439 3.05789C54.0422 4.38572 55.1147 5.46335 56.4392 5.46493C56.8558 5.46349 57.2646 5.35198 57.6247 5.1416L65.0857 10.9646C63.7104 13.0447 63.7474 15.7574 65.179 17.7992L62.9084 20.0753C62.7262 20.0173 62.5363 19.9862 62.3449 19.9835C61.2565 19.9835 60.3739 20.8681 60.3739 21.9594C60.3739 23.0507 61.2565 23.9353 62.3449 23.9353C63.4335 23.9353 64.3159 23.0507 64.3159 21.9594C64.3135 21.7676 64.2825 21.5773 64.2243 21.3945L66.4705 19.1427C69.1287 21.1781 72.9292 20.668 74.9595 18.0031C76.9899 15.3385 76.4811 11.5282 73.8229 9.49281C73.0182 8.87661 72.0724 8.47266 71.0717 8.3176Z" fill="#EC6744"/>
</svg>
