<svg width="948" height="1023" viewBox="0 0 948 1023" fill="none" xmlns="http://www.w3.org/2000/svg">
<mask id="mask0_593_55715" style="mask-type:alpha" maskUnits="userSpaceOnUse" x="-327" y="-332" width="1575" height="1575">
<circle cx="28.1317" cy="1.19713" r="1" transform="rotate(-2.9811 28.1317 1.19713)" fill="white"/>
<circle cx="62.0853" cy="-0.571182" r="1" transform="rotate(-2.9811 62.0853 -0.571182)" fill="white"/>
<circle cx="29.8998" cy="35.1512" r="1" transform="rotate(-2.9811 29.8998 35.1512)" fill="white"/>
<circle cx="63.8534" cy="33.3829" r="1" transform="rotate(-2.9811 63.8534 33.3829)" fill="white"/>
<circle cx="97.8075" cy="31.6146" r="1" transform="rotate(-2.9811 97.8075 31.6146)" fill="white"/>
<circle cx="131.762" cy="29.8465" r="1" transform="rotate(-2.9811 131.762 29.8465)" fill="white"/>
<circle cx="165.716" cy="28.0782" r="1" transform="rotate(-2.9811 165.716 28.0782)" fill="white"/>
<circle cx="199.67" cy="26.3102" r="1" transform="rotate(-2.9811 199.67 26.3102)" fill="white"/>
<circle cx="233.623" cy="24.5419" r="1" transform="rotate(-2.9811 233.623 24.5419)" fill="white"/>
<circle cx="267.578" cy="22.7735" r="1" transform="rotate(-2.9811 267.578 22.7735)" fill="white"/>
<circle cx="301.532" cy="21.0055" r="1" transform="rotate(-2.9811 301.532 21.0055)" fill="white"/>
<circle cx="335.486" cy="19.2372" r="1" transform="rotate(-2.9811 335.486 19.2372)" fill="white"/>
<circle cx="369.439" cy="17.4689" r="1" transform="rotate(-2.9811 369.439 17.4689)" fill="white"/>
<circle cx="403.393" cy="15.7008" r="1" transform="rotate(-2.9811 403.393 15.7008)" fill="white"/>
<circle cx="437.348" cy="13.9325" r="1" transform="rotate(-2.9811 437.348 13.9325)" fill="white"/>
<circle cx="471.302" cy="12.1644" r="1" transform="rotate(-2.9811 471.302 12.1644)" fill="white"/>
<circle cx="505.255" cy="10.3961" r="1" transform="rotate(-2.9811 505.255 10.3961)" fill="white"/>
<circle cx="539.209" cy="8.62779" r="1" transform="rotate(-2.9811 539.209 8.62779)" fill="white"/>
<circle cx="573.163" cy="6.85973" r="1" transform="rotate(-2.9811 573.163 6.85973)" fill="white"/>
<circle cx="607.118" cy="5.09142" r="1" transform="rotate(-2.9811 607.118 5.09142)" fill="white"/>
<circle cx="641.072" cy="3.32311" r="1" transform="rotate(-2.9811 641.072 3.32311)" fill="white"/>
<circle cx="675.025" cy="1.55504" r="1" transform="rotate(-2.9811 675.025 1.55504)" fill="white"/>
<circle cx="708.979" cy="-0.213272" r="1" transform="rotate(-2.9811 708.979 -0.213272)" fill="white"/>
<circle cx="31.6678" cy="69.1051" r="1" transform="rotate(-2.9811 31.6678 69.1051)" fill="white"/>
<circle cx="65.6215" cy="67.3368" r="1" transform="rotate(-2.9811 65.6215 67.3368)" fill="white"/>
<circle cx="99.5756" cy="65.5685" r="1" transform="rotate(-2.9811 99.5756 65.5685)" fill="white"/>
<circle cx="133.53" cy="63.8004" r="1" transform="rotate(-2.9811 133.53 63.8004)" fill="white"/>
<circle cx="167.484" cy="62.0321" r="1" transform="rotate(-2.9811 167.484 62.0321)" fill="white"/>
<circle cx="201.438" cy="60.264" r="1" transform="rotate(-2.9811 201.438 60.264)" fill="white"/>
<circle cx="235.391" cy="58.4957" r="1" transform="rotate(-2.9811 235.391 58.4957)" fill="white"/>
<circle cx="269.346" cy="56.7274" r="1" transform="rotate(-2.9811 269.346 56.7274)" fill="white"/>
<circle cx="303.3" cy="54.9593" r="1" transform="rotate(-2.9811 303.3 54.9593)" fill="white"/>
<circle cx="337.254" cy="53.191" r="1" transform="rotate(-2.9811 337.254 53.191)" fill="white"/>
<circle cx="371.207" cy="51.4227" r="1" transform="rotate(-2.9811 371.207 51.4227)" fill="white"/>
<circle cx="405.161" cy="49.6546" r="1" transform="rotate(-2.9811 405.161 49.6546)" fill="white"/>
<circle cx="439.116" cy="47.8863" r="1" transform="rotate(-2.9811 439.116 47.8863)" fill="white"/>
<circle cx="473.07" cy="46.1183" r="1" transform="rotate(-2.9811 473.07 46.1183)" fill="white"/>
<circle cx="507.023" cy="44.35" r="1" transform="rotate(-2.9811 507.023 44.35)" fill="white"/>
<circle cx="540.977" cy="42.5816" r="1" transform="rotate(-2.9811 540.977 42.5816)" fill="white"/>
<circle cx="574.932" cy="40.8136" r="1" transform="rotate(-2.9811 574.932 40.8136)" fill="white"/>
<circle cx="608.886" cy="39.0453" r="1" transform="rotate(-2.9811 608.886 39.0453)" fill="white"/>
<circle cx="642.84" cy="37.277" r="1" transform="rotate(-2.9811 642.84 37.277)" fill="white"/>
<circle cx="676.793" cy="35.5089" r="1" transform="rotate(-2.9811 676.793 35.5089)" fill="white"/>
<circle cx="710.747" cy="33.7406" r="1" transform="rotate(-2.9811 710.747 33.7406)" fill="white"/>
<circle cx="744.702" cy="31.9725" r="1" transform="rotate(-2.9811 744.702 31.9725)" fill="white"/>
<circle cx="778.656" cy="30.2042" r="1" transform="rotate(-2.9811 778.656 30.2042)" fill="white"/>
<circle cx="812.609" cy="28.4359" r="1" transform="rotate(-2.9811 812.609 28.4359)" fill="white"/>
<circle cx="846.563" cy="26.6678" r="1" transform="rotate(-2.9811 846.563 26.6678)" fill="white"/>
<circle cx="880.517" cy="24.8995" r="1" transform="rotate(-2.9811 880.517 24.8995)" fill="white"/>
<circle cx="914.472" cy="23.1312" r="1" transform="rotate(-2.9811 914.472 23.1312)" fill="white"/>
<circle cx="948.425" cy="21.3631" r="1" transform="rotate(-2.9811 948.425 21.3631)" fill="white"/>
<circle cx="-0.518194" cy="104.827" r="1" transform="rotate(-2.9811 -0.518194 104.827)" fill="white"/>
<circle cx="33.4359" cy="103.059" r="1" transform="rotate(-2.9811 33.4359 103.059)" fill="white"/>
<circle cx="67.3895" cy="101.291" r="1" transform="rotate(-2.9811 67.3895 101.291)" fill="white"/>
<circle cx="101.344" cy="99.5226" r="1" transform="rotate(-2.9811 101.344 99.5226)" fill="white"/>
<circle cx="135.298" cy="97.7545" r="1" transform="rotate(-2.9811 135.298 97.7545)" fill="white"/>
<circle cx="169.252" cy="95.9862" r="1" transform="rotate(-2.9811 169.252 95.9862)" fill="white"/>
<circle cx="203.206" cy="94.2181" r="1" transform="rotate(-2.9811 203.206 94.2181)" fill="white"/>
<circle cx="237.16" cy="92.4498" r="1" transform="rotate(-2.9811 237.16 92.4498)" fill="white"/>
<circle cx="271.114" cy="90.6815" r="1" transform="rotate(-2.9811 271.114 90.6815)" fill="white"/>
<circle cx="305.068" cy="88.9134" r="1" transform="rotate(-2.9811 305.068 88.9134)" fill="white"/>
<circle cx="339.022" cy="87.1451" r="1" transform="rotate(-2.9811 339.022 87.1451)" fill="white"/>
<circle cx="372.975" cy="85.3768" r="1" transform="rotate(-2.9811 372.975 85.3768)" fill="white"/>
<circle cx="406.93" cy="83.6087" r="1" transform="rotate(-2.9811 406.93 83.6087)" fill="white"/>
<circle cx="440.884" cy="81.8404" r="1" transform="rotate(-2.9811 440.884 81.8404)" fill="white"/>
<circle cx="474.838" cy="80.0724" r="1" transform="rotate(-2.9811 474.838 80.0724)" fill="white"/>
<circle cx="508.791" cy="78.3041" r="1" transform="rotate(-2.9811 508.791 78.3041)" fill="white"/>
<circle cx="542.745" cy="76.5358" r="1" transform="rotate(-2.9811 542.745 76.5358)" fill="white"/>
<circle cx="576.7" cy="74.7677" r="1" transform="rotate(-2.9811 576.7 74.7677)" fill="white"/>
<circle cx="610.654" cy="72.9994" r="1" transform="rotate(-2.9811 610.654 72.9994)" fill="white"/>
<circle cx="644.608" cy="71.2311" r="1" transform="rotate(-2.9811 644.608 71.2311)" fill="white"/>
<circle cx="678.561" cy="69.463" r="1" transform="rotate(-2.9811 678.561 69.463)" fill="white"/>
<circle cx="712.516" cy="67.6947" r="1" transform="rotate(-2.9811 712.516 67.6947)" fill="white"/>
<circle cx="746.47" cy="65.9266" r="1" transform="rotate(-2.9811 746.47 65.9266)" fill="white"/>
<circle cx="780.424" cy="64.1583" r="1" transform="rotate(-2.9811 780.424 64.1583)" fill="white"/>
<circle cx="814.377" cy="62.39" r="1" transform="rotate(-2.9811 814.377 62.39)" fill="white"/>
<circle cx="848.331" cy="60.6219" r="1" transform="rotate(-2.9811 848.331 60.6219)" fill="white"/>
<circle cx="882.286" cy="58.8536" r="1" transform="rotate(-2.9811 882.286 58.8536)" fill="white"/>
<circle cx="916.24" cy="57.0853" r="1" transform="rotate(-2.9811 916.24 57.0853)" fill="white"/>
<circle cx="1.25036" cy="138.781" r="1" transform="rotate(-2.9811 1.25036 138.781)" fill="white"/>
<circle cx="35.2045" cy="137.013" r="1" transform="rotate(-2.9811 35.2045 137.013)" fill="white"/>
<circle cx="69.1581" cy="135.245" r="1" transform="rotate(-2.9811 69.1581 135.245)" fill="white"/>
<circle cx="103.112" cy="133.476" r="1" transform="rotate(-2.9811 103.112 133.476)" fill="white"/>
<circle cx="137.066" cy="131.708" r="1" transform="rotate(-2.9811 137.066 131.708)" fill="white"/>
<circle cx="171.02" cy="129.94" r="1" transform="rotate(-2.9811 171.02 129.94)" fill="white"/>
<circle cx="204.974" cy="128.172" r="1" transform="rotate(-2.9811 204.974 128.172)" fill="white"/>
<circle cx="238.928" cy="126.404" r="1" transform="rotate(-2.9811 238.928 126.404)" fill="white"/>
<circle cx="272.882" cy="124.635" r="1" transform="rotate(-2.9811 272.882 124.635)" fill="white"/>
<circle cx="306.836" cy="122.867" r="1" transform="rotate(-2.9811 306.836 122.867)" fill="white"/>
<circle cx="340.79" cy="121.099" r="1" transform="rotate(-2.9811 340.79 121.099)" fill="white"/>
<circle cx="374.744" cy="119.331" r="1" transform="rotate(-2.9811 374.744 119.331)" fill="white"/>
<circle cx="408.698" cy="117.563" r="1" transform="rotate(-2.9811 408.698 117.563)" fill="white"/>
<circle cx="442.652" cy="115.794" r="1" transform="rotate(-2.9811 442.652 115.794)" fill="white"/>
<circle cx="476.606" cy="114.026" r="1" transform="rotate(-2.9811 476.606 114.026)" fill="white"/>
<circle cx="510.56" cy="112.258" r="1" transform="rotate(-2.9811 510.56 112.258)" fill="white"/>
<circle cx="544.514" cy="110.49" r="1" transform="rotate(-2.9811 544.514 110.49)" fill="white"/>
<circle cx="578.468" cy="108.722" r="1" transform="rotate(-2.9811 578.468 108.722)" fill="white"/>
<circle cx="612.422" cy="106.953" r="1" transform="rotate(-2.9811 612.422 106.953)" fill="white"/>
<circle cx="646.376" cy="105.185" r="1" transform="rotate(-2.9811 646.376 105.185)" fill="white"/>
<circle cx="680.33" cy="103.417" r="1" transform="rotate(-2.9811 680.33 103.417)" fill="white"/>
<circle cx="714.284" cy="101.649" r="1" transform="rotate(-2.9811 714.284 101.649)" fill="white"/>
<circle cx="748.238" cy="99.8805" r="1" transform="rotate(-2.9811 748.238 99.8805)" fill="white"/>
<circle cx="782.192" cy="98.1122" r="1" transform="rotate(-2.9811 782.192 98.1122)" fill="white"/>
<circle cx="816.146" cy="96.3439" r="1" transform="rotate(-2.9811 816.146 96.3439)" fill="white"/>
<circle cx="850.1" cy="94.5758" r="1" transform="rotate(-2.9811 850.1 94.5758)" fill="white"/>
<circle cx="884.054" cy="92.8075" r="1" transform="rotate(-2.9811 884.054 92.8075)" fill="white"/>
<circle cx="918.008" cy="91.0392" r="1" transform="rotate(-2.9811 918.008 91.0392)" fill="white"/>
<circle cx="3.01843" cy="172.735" r="1" transform="rotate(-2.9811 3.01843 172.735)" fill="white"/>
<circle cx="36.9725" cy="170.967" r="1" transform="rotate(-2.9811 36.9725 170.967)" fill="white"/>
<circle cx="70.9261" cy="169.199" r="1" transform="rotate(-2.9811 70.9261 169.199)" fill="white"/>
<circle cx="104.88" cy="167.431" r="1" transform="rotate(-2.9811 104.88 167.431)" fill="white"/>
<circle cx="138.834" cy="165.662" r="1" transform="rotate(-2.9811 138.834 165.662)" fill="white"/>
<circle cx="172.788" cy="163.894" r="1" transform="rotate(-2.9811 172.788 163.894)" fill="white"/>
<circle cx="206.743" cy="162.126" r="1" transform="rotate(-2.9811 206.743 162.126)" fill="white"/>
<circle cx="240.696" cy="160.358" r="1" transform="rotate(-2.9811 240.696 160.358)" fill="white"/>
<circle cx="274.65" cy="158.589" r="1" transform="rotate(-2.9811 274.65 158.589)" fill="white"/>
<circle cx="308.604" cy="156.821" r="1" transform="rotate(-2.9811 308.604 156.821)" fill="white"/>
<circle cx="342.558" cy="155.053" r="1" transform="rotate(-2.9811 342.558 155.053)" fill="white"/>
<circle cx="376.512" cy="153.285" r="1" transform="rotate(-2.9811 376.512 153.285)" fill="white"/>
<circle cx="410.466" cy="151.517" r="1" transform="rotate(-2.9811 410.466 151.517)" fill="white"/>
<circle cx="444.42" cy="149.748" r="1" transform="rotate(-2.9811 444.42 149.748)" fill="white"/>
<circle cx="478.374" cy="147.98" r="1" transform="rotate(-2.9811 478.374 147.98)" fill="white"/>
<circle cx="512.328" cy="146.212" r="1" transform="rotate(-2.9811 512.328 146.212)" fill="white"/>
<circle cx="546.282" cy="144.444" r="1" transform="rotate(-2.9811 546.282 144.444)" fill="white"/>
<circle cx="580.236" cy="142.676" r="1" transform="rotate(-2.9811 580.236 142.676)" fill="white"/>
<circle cx="614.19" cy="140.907" r="1" transform="rotate(-2.9811 614.19 140.907)" fill="white"/>
<circle cx="648.144" cy="139.139" r="1" transform="rotate(-2.9811 648.144 139.139)" fill="white"/>
<circle cx="682.098" cy="137.371" r="1" transform="rotate(-2.9811 682.098 137.371)" fill="white"/>
<circle cx="716.052" cy="135.603" r="1" transform="rotate(-2.9811 716.052 135.603)" fill="white"/>
<circle cx="750.006" cy="133.835" r="1" transform="rotate(-2.9811 750.006 133.835)" fill="white"/>
<circle cx="783.96" cy="132.066" r="1" transform="rotate(-2.9811 783.96 132.066)" fill="white"/>
<circle cx="817.914" cy="130.298" r="1" transform="rotate(-2.9811 817.914 130.298)" fill="white"/>
<circle cx="851.868" cy="128.53" r="1" transform="rotate(-2.9811 851.868 128.53)" fill="white"/>
<circle cx="885.822" cy="126.762" r="1" transform="rotate(-2.9811 885.822 126.762)" fill="white"/>
<circle cx="919.776" cy="124.993" r="1" transform="rotate(-2.9811 919.776 124.993)" fill="white"/>
<circle cx="4.78649" cy="206.689" r="1" transform="rotate(-2.9811 4.78649 206.689)" fill="white"/>
<circle cx="38.7406" cy="204.921" r="1" transform="rotate(-2.9811 38.7406 204.921)" fill="white"/>
<circle cx="72.6942" cy="203.153" r="1" transform="rotate(-2.9811 72.6942 203.153)" fill="white"/>
<circle cx="106.648" cy="201.385" r="1" transform="rotate(-2.9811 106.648 201.385)" fill="white"/>
<circle cx="140.602" cy="199.617" r="1" transform="rotate(-2.9811 140.602 199.617)" fill="white"/>
<circle cx="174.557" cy="197.848" r="1" transform="rotate(-2.9811 174.557 197.848)" fill="white"/>
<circle cx="208.511" cy="196.08" r="1" transform="rotate(-2.9811 208.511 196.08)" fill="white"/>
<circle cx="242.464" cy="194.312" r="1" transform="rotate(-2.9811 242.464 194.312)" fill="white"/>
<circle cx="276.418" cy="192.544" r="1" transform="rotate(-2.9811 276.418 192.544)" fill="white"/>
<circle cx="310.372" cy="190.775" r="1" transform="rotate(-2.9811 310.372 190.775)" fill="white"/>
<circle cx="344.327" cy="189.007" r="1" transform="rotate(-2.9811 344.327 189.007)" fill="white"/>
<circle cx="378.28" cy="187.239" r="1" transform="rotate(-2.9811 378.28 187.239)" fill="white"/>
<circle cx="412.234" cy="185.471" r="1" transform="rotate(-2.9811 412.234 185.471)" fill="white"/>
<circle cx="446.188" cy="183.702" r="1" transform="rotate(-2.9811 446.188 183.702)" fill="white"/>
<circle cx="480.142" cy="181.934" r="1" transform="rotate(-2.9811 480.142 181.934)" fill="white"/>
<circle cx="514.096" cy="180.166" r="1" transform="rotate(-2.9811 514.096 180.166)" fill="white"/>
<circle cx="548.05" cy="178.398" r="1" transform="rotate(-2.9811 548.05 178.398)" fill="white"/>
<circle cx="582.004" cy="176.63" r="1" transform="rotate(-2.9811 582.004 176.63)" fill="white"/>
<circle cx="615.958" cy="174.861" r="1" transform="rotate(-2.9811 615.958 174.861)" fill="white"/>
<circle cx="649.912" cy="173.093" r="1" transform="rotate(-2.9811 649.912 173.093)" fill="white"/>
<circle cx="683.866" cy="171.325" r="1" transform="rotate(-2.9811 683.866 171.325)" fill="white"/>
<circle cx="717.82" cy="169.557" r="1" transform="rotate(-2.9811 717.82 169.557)" fill="white"/>
<circle cx="751.774" cy="167.789" r="1" transform="rotate(-2.9811 751.774 167.789)" fill="white"/>
<circle cx="785.728" cy="166.02" r="1" transform="rotate(-2.9811 785.728 166.02)" fill="white"/>
<circle cx="819.682" cy="164.252" r="1" transform="rotate(-2.9811 819.682 164.252)" fill="white"/>
<circle cx="853.636" cy="162.484" r="1" transform="rotate(-2.9811 853.636 162.484)" fill="white"/>
<circle cx="887.59" cy="160.716" r="1" transform="rotate(-2.9811 887.59 160.716)" fill="white"/>
<circle cx="921.544" cy="158.947" r="1" transform="rotate(-2.9811 921.544 158.947)" fill="white"/>
<circle cx="6.55505" cy="240.643" r="1" transform="rotate(-2.9811 6.55505 240.643)" fill="white"/>
<circle cx="40.5091" cy="238.875" r="1" transform="rotate(-2.9811 40.5091 238.875)" fill="white"/>
<circle cx="74.4628" cy="237.107" r="1" transform="rotate(-2.9811 74.4628 237.107)" fill="white"/>
<circle cx="108.417" cy="235.338" r="1" transform="rotate(-2.9811 108.417 235.338)" fill="white"/>
<circle cx="142.371" cy="233.57" r="1" transform="rotate(-2.9811 142.371 233.57)" fill="white"/>
<circle cx="176.325" cy="231.802" r="1" transform="rotate(-2.9811 176.325 231.802)" fill="white"/>
<circle cx="210.279" cy="230.034" r="1" transform="rotate(-2.9811 210.279 230.034)" fill="white"/>
<circle cx="244.233" cy="228.266" r="1" transform="rotate(-2.9811 244.233 228.266)" fill="white"/>
<circle cx="278.187" cy="226.497" r="1" transform="rotate(-2.9811 278.187 226.497)" fill="white"/>
<circle cx="312.141" cy="224.729" r="1" transform="rotate(-2.9811 312.141 224.729)" fill="white"/>
<circle cx="346.095" cy="222.961" r="1" transform="rotate(-2.9811 346.095 222.961)" fill="white"/>
<circle cx="380.049" cy="221.193" r="1" transform="rotate(-2.9811 380.049 221.193)" fill="white"/>
<circle cx="414.003" cy="219.425" r="1" transform="rotate(-2.9811 414.003 219.425)" fill="white"/>
<circle cx="447.957" cy="217.656" r="1" transform="rotate(-2.9811 447.957 217.656)" fill="white"/>
<circle cx="481.911" cy="215.888" r="1" transform="rotate(-2.9811 481.911 215.888)" fill="white"/>
<circle cx="515.865" cy="214.12" r="1" transform="rotate(-2.9811 515.865 214.12)" fill="white"/>
<circle cx="549.819" cy="212.352" r="1" transform="rotate(-2.9811 549.819 212.352)" fill="white"/>
<circle cx="583.773" cy="210.584" r="1" transform="rotate(-2.9811 583.773 210.584)" fill="white"/>
<circle cx="617.727" cy="208.815" r="1" transform="rotate(-2.9811 617.727 208.815)" fill="white"/>
<circle cx="651.681" cy="207.047" r="1" transform="rotate(-2.9811 651.681 207.047)" fill="white"/>
<circle cx="685.635" cy="205.279" r="1" transform="rotate(-2.9811 685.635 205.279)" fill="white"/>
<circle cx="719.589" cy="203.511" r="1" transform="rotate(-2.9811 719.589 203.511)" fill="white"/>
<circle cx="753.543" cy="201.743" r="1" transform="rotate(-2.9811 753.543 201.743)" fill="white"/>
<circle cx="787.497" cy="199.974" r="1" transform="rotate(-2.9811 787.497 199.974)" fill="white"/>
<circle cx="821.451" cy="198.206" r="1" transform="rotate(-2.9811 821.451 198.206)" fill="white"/>
<circle cx="855.405" cy="196.438" r="1" transform="rotate(-2.9811 855.405 196.438)" fill="white"/>
<circle cx="889.359" cy="194.67" r="1" transform="rotate(-2.9811 889.359 194.67)" fill="white"/>
<circle cx="923.313" cy="192.901" r="1" transform="rotate(-2.9811 923.313 192.901)" fill="white"/>
<circle cx="8.32311" cy="274.597" r="1" transform="rotate(-2.9811 8.32311 274.597)" fill="white"/>
<circle cx="42.2772" cy="272.829" r="1" transform="rotate(-2.9811 42.2772 272.829)" fill="white"/>
<circle cx="76.2308" cy="271.061" r="1" transform="rotate(-2.9811 76.2308 271.061)" fill="white"/>
<circle cx="110.185" cy="269.293" r="1" transform="rotate(-2.9811 110.185 269.293)" fill="white"/>
<circle cx="144.139" cy="267.525" r="1" transform="rotate(-2.9811 144.139 267.525)" fill="white"/>
<circle cx="178.093" cy="265.756" r="1" transform="rotate(-2.9811 178.093 265.756)" fill="white"/>
<circle cx="212.047" cy="263.988" r="1" transform="rotate(-2.9811 212.047 263.988)" fill="white"/>
<circle cx="246.001" cy="262.22" r="1" transform="rotate(-2.9811 246.001 262.22)" fill="white"/>
<circle cx="279.955" cy="260.452" r="1" transform="rotate(-2.9811 279.955 260.452)" fill="white"/>
<circle cx="313.909" cy="258.683" r="1" transform="rotate(-2.9811 313.909 258.683)" fill="white"/>
<circle cx="347.863" cy="256.915" r="1" transform="rotate(-2.9811 347.863 256.915)" fill="white"/>
<circle cx="381.817" cy="255.147" r="1" transform="rotate(-2.9811 381.817 255.147)" fill="white"/>
<circle cx="415.771" cy="253.379" r="1" transform="rotate(-2.9811 415.771 253.379)" fill="white"/>
<circle cx="449.725" cy="251.61" r="1" transform="rotate(-2.9811 449.725 251.61)" fill="white"/>
<circle cx="483.679" cy="249.842" r="1" transform="rotate(-2.9811 483.679 249.842)" fill="white"/>
<circle cx="517.633" cy="248.074" r="1" transform="rotate(-2.9811 517.633 248.074)" fill="white"/>
<circle cx="551.587" cy="246.306" r="1" transform="rotate(-2.9811 551.587 246.306)" fill="white"/>
<circle cx="585.541" cy="244.538" r="1" transform="rotate(-2.9811 585.541 244.538)" fill="white"/>
<circle cx="619.495" cy="242.769" r="1" transform="rotate(-2.9811 619.495 242.769)" fill="white"/>
<circle cx="653.449" cy="241.001" r="1" transform="rotate(-2.9811 653.449 241.001)" fill="white"/>
<circle cx="687.403" cy="239.233" r="1" transform="rotate(-2.9811 687.403 239.233)" fill="white"/>
<circle cx="721.357" cy="237.465" r="1" transform="rotate(-2.9811 721.357 237.465)" fill="white"/>
<circle cx="755.311" cy="235.697" r="1" transform="rotate(-2.9811 755.311 235.697)" fill="white"/>
<circle cx="789.265" cy="233.928" r="1" transform="rotate(-2.9811 789.265 233.928)" fill="white"/>
<circle cx="823.219" cy="232.16" r="1" transform="rotate(-2.9811 823.219 232.16)" fill="white"/>
<circle cx="857.173" cy="230.392" r="1" transform="rotate(-2.9811 857.173 230.392)" fill="white"/>
<circle cx="891.127" cy="228.624" r="1" transform="rotate(-2.9811 891.127 228.624)" fill="white"/>
<circle cx="925.081" cy="226.855" r="1" transform="rotate(-2.9811 925.081 226.855)" fill="white"/>
<circle cx="10.0912" cy="308.551" r="1" transform="rotate(-2.9811 10.0912 308.551)" fill="white"/>
<circle cx="44.0453" cy="306.783" r="1" transform="rotate(-2.9811 44.0453 306.783)" fill="white"/>
<circle cx="77.9989" cy="305.015" r="1" transform="rotate(-2.9811 77.9989 305.015)" fill="white"/>
<circle cx="111.953" cy="303.246" r="1" transform="rotate(-2.9811 111.953 303.246)" fill="white"/>
<circle cx="145.907" cy="301.478" r="1" transform="rotate(-2.9811 145.907 301.478)" fill="white"/>
<circle cx="179.861" cy="299.71" r="1" transform="rotate(-2.9811 179.861 299.71)" fill="white"/>
<circle cx="213.815" cy="297.942" r="1" transform="rotate(-2.9811 213.815 297.942)" fill="white"/>
<circle cx="247.769" cy="296.174" r="1" transform="rotate(-2.9811 247.769 296.174)" fill="white"/>
<circle cx="281.723" cy="294.405" r="1" transform="rotate(-2.9811 281.723 294.405)" fill="white"/>
<circle cx="315.677" cy="292.637" r="1" transform="rotate(-2.9811 315.677 292.637)" fill="white"/>
<circle cx="349.631" cy="290.869" r="1" transform="rotate(-2.9811 349.631 290.869)" fill="white"/>
<circle cx="383.585" cy="289.101" r="1" transform="rotate(-2.9811 383.585 289.101)" fill="white"/>
<circle cx="417.539" cy="287.333" r="1" transform="rotate(-2.9811 417.539 287.333)" fill="white"/>
<circle cx="451.493" cy="285.564" r="1" transform="rotate(-2.9811 451.493 285.564)" fill="white"/>
<circle cx="485.447" cy="283.796" r="1" transform="rotate(-2.9811 485.447 283.796)" fill="white"/>
<circle cx="519.401" cy="282.028" r="1" transform="rotate(-2.9811 519.401 282.028)" fill="white"/>
<circle cx="553.355" cy="280.26" r="1" transform="rotate(-2.9811 553.355 280.26)" fill="white"/>
<circle cx="587.309" cy="278.492" r="1" transform="rotate(-2.9811 587.309 278.492)" fill="white"/>
<circle cx="621.263" cy="276.723" r="1" transform="rotate(-2.9811 621.263 276.723)" fill="white"/>
<circle cx="655.217" cy="274.955" r="1" transform="rotate(-2.9811 655.217 274.955)" fill="white"/>
<circle cx="689.171" cy="273.187" r="1" transform="rotate(-2.9811 689.171 273.187)" fill="white"/>
<circle cx="723.125" cy="271.419" r="1" transform="rotate(-2.9811 723.125 271.419)" fill="white"/>
<circle cx="757.079" cy="269.651" r="1" transform="rotate(-2.9811 757.079 269.651)" fill="white"/>
<circle cx="791.033" cy="267.882" r="1" transform="rotate(-2.9811 791.033 267.882)" fill="white"/>
<circle cx="824.987" cy="266.114" r="1" transform="rotate(-2.9811 824.987 266.114)" fill="white"/>
<circle cx="858.941" cy="264.346" r="1" transform="rotate(-2.9811 858.941 264.346)" fill="white"/>
<circle cx="892.895" cy="262.578" r="1" transform="rotate(-2.9811 892.895 262.578)" fill="white"/>
<circle cx="926.849" cy="260.809" r="1" transform="rotate(-2.9811 926.849 260.809)" fill="white"/>
<circle cx="11.8597" cy="342.505" r="1" transform="rotate(-2.9811 11.8597 342.505)" fill="white"/>
<circle cx="45.8138" cy="340.737" r="1" transform="rotate(-2.9811 45.8138 340.737)" fill="white"/>
<circle cx="79.7674" cy="338.969" r="1" transform="rotate(-2.9811 79.7674 338.969)" fill="white"/>
<circle cx="113.722" cy="337.201" r="1" transform="rotate(-2.9811 113.722 337.201)" fill="white"/>
<circle cx="147.676" cy="335.432" r="1" transform="rotate(-2.9811 147.676 335.432)" fill="white"/>
<circle cx="181.63" cy="333.664" r="1" transform="rotate(-2.9811 181.63 333.664)" fill="white"/>
<circle cx="215.584" cy="331.896" r="1" transform="rotate(-2.9811 215.584 331.896)" fill="white"/>
<circle cx="249.537" cy="330.128" r="1" transform="rotate(-2.9811 249.537 330.128)" fill="white"/>
<circle cx="283.492" cy="328.359" r="1" transform="rotate(-2.9811 283.492 328.359)" fill="white"/>
<circle cx="317.446" cy="326.591" r="1" transform="rotate(-2.9811 317.446 326.591)" fill="white"/>
<circle cx="351.4" cy="324.823" r="1" transform="rotate(-2.9811 351.4 324.823)" fill="white"/>
<circle cx="385.353" cy="323.055" r="1" transform="rotate(-2.9811 385.353 323.055)" fill="white"/>
<circle cx="419.307" cy="321.287" r="1" transform="rotate(-2.9811 419.307 321.287)" fill="white"/>
<circle cx="453.262" cy="319.518" r="1" transform="rotate(-2.9811 453.262 319.518)" fill="white"/>
<circle cx="487.216" cy="317.75" r="1" transform="rotate(-2.9811 487.216 317.75)" fill="white"/>
<circle cx="521.169" cy="315.982" r="1" transform="rotate(-2.9811 521.169 315.982)" fill="white"/>
<circle cx="555.123" cy="314.214" r="1" transform="rotate(-2.9811 555.123 314.214)" fill="white"/>
<circle cx="589.078" cy="312.446" r="1" transform="rotate(-2.9811 589.078 312.446)" fill="white"/>
<circle cx="623.032" cy="310.677" r="1" transform="rotate(-2.9811 623.032 310.677)" fill="white"/>
<circle cx="656.986" cy="308.909" r="1" transform="rotate(-2.9811 656.986 308.909)" fill="white"/>
<circle cx="690.939" cy="307.141" r="1" transform="rotate(-2.9811 690.939 307.141)" fill="white"/>
<circle cx="724.893" cy="305.373" r="1" transform="rotate(-2.9811 724.893 305.373)" fill="white"/>
<circle cx="758.848" cy="303.605" r="1" transform="rotate(-2.9811 758.848 303.605)" fill="white"/>
<circle cx="792.802" cy="301.836" r="1" transform="rotate(-2.9811 792.802 301.836)" fill="white"/>
<circle cx="826.755" cy="300.068" r="1" transform="rotate(-2.9811 826.755 300.068)" fill="white"/>
<circle cx="860.709" cy="298.3" r="1" transform="rotate(-2.9811 860.709 298.3)" fill="white"/>
<circle cx="894.663" cy="296.532" r="1" transform="rotate(-2.9811 894.663 296.532)" fill="white"/>
<circle cx="928.618" cy="294.763" r="1" transform="rotate(-2.9811 928.618 294.763)" fill="white"/>
<circle cx="13.6278" cy="376.459" r="1" transform="rotate(-2.9811 13.6278 376.459)" fill="white"/>
<circle cx="47.5819" cy="374.691" r="1" transform="rotate(-2.9811 47.5819 374.691)" fill="white"/>
<circle cx="81.5355" cy="372.923" r="1" transform="rotate(-2.9811 81.5355 372.923)" fill="white"/>
<circle cx="115.49" cy="371.155" r="1" transform="rotate(-2.9811 115.49 371.155)" fill="white"/>
<circle cx="149.444" cy="369.386" r="1" transform="rotate(-2.9811 149.444 369.386)" fill="white"/>
<circle cx="183.398" cy="367.618" r="1" transform="rotate(-2.9811 183.398 367.618)" fill="white"/>
<circle cx="217.352" cy="365.85" r="1" transform="rotate(-2.9811 217.352 365.85)" fill="white"/>
<circle cx="251.306" cy="364.082" r="1" transform="rotate(-2.9811 251.306 364.082)" fill="white"/>
<circle cx="285.26" cy="362.313" r="1" transform="rotate(-2.9811 285.26 362.313)" fill="white"/>
<circle cx="319.214" cy="360.545" r="1" transform="rotate(-2.9811 319.214 360.545)" fill="white"/>
<circle cx="353.168" cy="358.777" r="1" transform="rotate(-2.9811 353.168 358.777)" fill="white"/>
<circle cx="387.121" cy="357.009" r="1" transform="rotate(-2.9811 387.121 357.009)" fill="white"/>
<circle cx="421.076" cy="355.241" r="1" transform="rotate(-2.9811 421.076 355.241)" fill="white"/>
<circle cx="455.03" cy="353.472" r="1" transform="rotate(-2.9811 455.03 353.472)" fill="white"/>
<circle cx="488.984" cy="351.704" r="1" transform="rotate(-2.9811 488.984 351.704)" fill="white"/>
<circle cx="522.937" cy="349.936" r="1" transform="rotate(-2.9811 522.937 349.936)" fill="white"/>
<circle cx="556.891" cy="348.168" r="1" transform="rotate(-2.9811 556.891 348.168)" fill="white"/>
<circle cx="590.846" cy="346.4" r="1" transform="rotate(-2.9811 590.846 346.4)" fill="white"/>
<circle cx="624.8" cy="344.631" r="1" transform="rotate(-2.9811 624.8 344.631)" fill="white"/>
<circle cx="658.754" cy="342.863" r="1" transform="rotate(-2.9811 658.754 342.863)" fill="white"/>
<circle cx="692.707" cy="341.095" r="1" transform="rotate(-2.9811 692.707 341.095)" fill="white"/>
<circle cx="726.661" cy="339.327" r="1" transform="rotate(-2.9811 726.661 339.327)" fill="white"/>
<circle cx="760.616" cy="337.558" r="1" transform="rotate(-2.9811 760.616 337.558)" fill="white"/>
<circle cx="794.57" cy="335.79" r="1" transform="rotate(-2.9811 794.57 335.79)" fill="white"/>
<circle cx="828.523" cy="334.022" r="1" transform="rotate(-2.9811 828.523 334.022)" fill="white"/>
<circle cx="862.477" cy="332.254" r="1" transform="rotate(-2.9811 862.477 332.254)" fill="white"/>
<circle cx="896.432" cy="330.485" r="1" transform="rotate(-2.9811 896.432 330.485)" fill="white"/>
<circle cx="930.386" cy="328.717" r="1" transform="rotate(-2.9811 930.386 328.717)" fill="white"/>
<circle cx="15.3959" cy="410.413" r="1" transform="rotate(-2.9811 15.3959 410.413)" fill="white"/>
<circle cx="49.35" cy="408.645" r="1" transform="rotate(-2.9811 49.35 408.645)" fill="white"/>
<circle cx="83.3036" cy="406.877" r="1" transform="rotate(-2.9811 83.3036 406.877)" fill="white"/>
<circle cx="117.258" cy="405.109" r="1" transform="rotate(-2.9811 117.258 405.109)" fill="white"/>
<circle cx="151.212" cy="403.34" r="1" transform="rotate(-2.9811 151.212 403.34)" fill="white"/>
<circle cx="185.166" cy="401.572" r="1" transform="rotate(-2.9811 185.166 401.572)" fill="white"/>
<circle cx="219.12" cy="399.804" r="1" transform="rotate(-2.9811 219.12 399.804)" fill="white"/>
<circle cx="253.074" cy="398.036" r="1" transform="rotate(-2.9811 253.074 398.036)" fill="white"/>
<circle cx="287.028" cy="396.268" r="1" transform="rotate(-2.9811 287.028 396.268)" fill="white"/>
<circle cx="320.982" cy="394.499" r="1" transform="rotate(-2.9811 320.982 394.499)" fill="white"/>
<circle cx="354.936" cy="392.731" r="1" transform="rotate(-2.9811 354.936 392.731)" fill="white"/>
<circle cx="388.89" cy="390.963" r="1" transform="rotate(-2.9811 388.89 390.963)" fill="white"/>
<circle cx="422.844" cy="389.195" r="1" transform="rotate(-2.9811 422.844 389.195)" fill="white"/>
<circle cx="456.798" cy="387.426" r="1" transform="rotate(-2.9811 456.798 387.426)" fill="white"/>
<circle cx="490.752" cy="385.658" r="1" transform="rotate(-2.9811 490.752 385.658)" fill="white"/>
<circle cx="524.705" cy="383.89" r="1" transform="rotate(-2.9811 524.705 383.89)" fill="white"/>
<circle cx="558.66" cy="382.122" r="1" transform="rotate(-2.9811 558.66 382.122)" fill="white"/>
<circle cx="592.614" cy="380.354" r="1" transform="rotate(-2.9811 592.614 380.354)" fill="white"/>
<circle cx="626.568" cy="378.585" r="1" transform="rotate(-2.9811 626.568 378.585)" fill="white"/>
<circle cx="660.522" cy="376.817" r="1" transform="rotate(-2.9811 660.522 376.817)" fill="white"/>
<circle cx="694.475" cy="375.049" r="1" transform="rotate(-2.9811 694.475 375.049)" fill="white"/>
<circle cx="728.43" cy="373.281" r="1" transform="rotate(-2.9811 728.43 373.281)" fill="white"/>
<circle cx="762.384" cy="371.512" r="1" transform="rotate(-2.9811 762.384 371.512)" fill="white"/>
<circle cx="796.338" cy="369.744" r="1" transform="rotate(-2.9811 796.338 369.744)" fill="white"/>
<circle cx="830.291" cy="367.976" r="1" transform="rotate(-2.9811 830.291 367.976)" fill="white"/>
<circle cx="864.245" cy="366.208" r="1" transform="rotate(-2.9811 864.245 366.208)" fill="white"/>
<circle cx="898.2" cy="364.44" r="1" transform="rotate(-2.9811 898.2 364.44)" fill="white"/>
<circle cx="932.154" cy="362.671" r="1" transform="rotate(-2.9811 932.154 362.671)" fill="white"/>
<circle cx="17.1644" cy="444.367" r="1" transform="rotate(-2.9811 17.1644 444.367)" fill="white"/>
<circle cx="51.1185" cy="442.599" r="1" transform="rotate(-2.9811 51.1185 442.599)" fill="white"/>
<circle cx="85.0721" cy="440.831" r="1" transform="rotate(-2.9811 85.0721 440.831)" fill="white"/>
<circle cx="119.026" cy="439.063" r="1" transform="rotate(-2.9811 119.026 439.063)" fill="white"/>
<circle cx="152.98" cy="437.294" r="1" transform="rotate(-2.9811 152.98 437.294)" fill="white"/>
<circle cx="186.934" cy="435.526" r="1" transform="rotate(-2.9811 186.934 435.526)" fill="white"/>
<circle cx="220.889" cy="433.758" r="1" transform="rotate(-2.9811 220.889 433.758)" fill="white"/>
<circle cx="254.842" cy="431.99" r="1" transform="rotate(-2.9811 254.842 431.99)" fill="white"/>
<circle cx="288.796" cy="430.222" r="1" transform="rotate(-2.9811 288.796 430.222)" fill="white"/>
<circle cx="322.75" cy="428.453" r="1" transform="rotate(-2.9811 322.75 428.453)" fill="white"/>
<circle cx="356.704" cy="426.685" r="1" transform="rotate(-2.9811 356.704 426.685)" fill="white"/>
<circle cx="390.658" cy="424.917" r="1" transform="rotate(-2.9811 390.658 424.917)" fill="white"/>
<circle cx="424.612" cy="423.149" r="1" transform="rotate(-2.9811 424.612 423.149)" fill="white"/>
<circle cx="458.566" cy="421.38" r="1" transform="rotate(-2.9811 458.566 421.38)" fill="white"/>
<circle cx="492.52" cy="419.612" r="1" transform="rotate(-2.9811 492.52 419.612)" fill="white"/>
<circle cx="526.474" cy="417.844" r="1" transform="rotate(-2.9811 526.474 417.844)" fill="white"/>
<circle cx="560.428" cy="416.076" r="1" transform="rotate(-2.9811 560.428 416.076)" fill="white"/>
<circle cx="594.382" cy="414.307" r="1" transform="rotate(-2.9811 594.382 414.307)" fill="white"/>
<circle cx="628.336" cy="412.539" r="1" transform="rotate(-2.9811 628.336 412.539)" fill="white"/>
<circle cx="662.29" cy="410.771" r="1" transform="rotate(-2.9811 662.29 410.771)" fill="white"/>
<circle cx="696.244" cy="409.003" r="1" transform="rotate(-2.9811 696.244 409.003)" fill="white"/>
<circle cx="730.198" cy="407.235" r="1" transform="rotate(-2.9811 730.198 407.235)" fill="white"/>
<circle cx="764.152" cy="405.466" r="1" transform="rotate(-2.9811 764.152 405.466)" fill="white"/>
<circle cx="798.106" cy="403.698" r="1" transform="rotate(-2.9811 798.106 403.698)" fill="white"/>
<circle cx="832.06" cy="401.93" r="1" transform="rotate(-2.9811 832.06 401.93)" fill="white"/>
<circle cx="866.014" cy="400.162" r="1" transform="rotate(-2.9811 866.014 400.162)" fill="white"/>
<circle cx="899.968" cy="398.394" r="1" transform="rotate(-2.9811 899.968 398.394)" fill="white"/>
<circle cx="933.922" cy="396.625" r="1" transform="rotate(-2.9811 933.922 396.625)" fill="white"/>
<circle cx="18.9325" cy="478.321" r="1" transform="rotate(-2.9811 18.9325 478.321)" fill="white"/>
<circle cx="52.8866" cy="476.553" r="1" transform="rotate(-2.9811 52.8866 476.553)" fill="white"/>
<circle cx="86.8402" cy="474.785" r="1" transform="rotate(-2.9811 86.8402 474.785)" fill="white"/>
<circle cx="120.794" cy="473.017" r="1" transform="rotate(-2.9811 120.794 473.017)" fill="white"/>
<circle cx="154.748" cy="471.248" r="1" transform="rotate(-2.9811 154.748 471.248)" fill="white"/>
<circle cx="188.703" cy="469.48" r="1" transform="rotate(-2.9811 188.703 469.48)" fill="white"/>
<circle cx="222.657" cy="467.712" r="1" transform="rotate(-2.9811 222.657 467.712)" fill="white"/>
<circle cx="256.61" cy="465.944" r="1" transform="rotate(-2.9811 256.61 465.944)" fill="white"/>
<circle cx="290.564" cy="464.176" r="1" transform="rotate(-2.9811 290.564 464.176)" fill="white"/>
<circle cx="324.518" cy="462.407" r="1" transform="rotate(-2.9811 324.518 462.407)" fill="white"/>
<circle cx="358.473" cy="460.639" r="1" transform="rotate(-2.9811 358.473 460.639)" fill="white"/>
<circle cx="392.426" cy="458.871" r="1" transform="rotate(-2.9811 392.426 458.871)" fill="white"/>
<circle cx="426.38" cy="457.103" r="1" transform="rotate(-2.9811 426.38 457.103)" fill="white"/>
<circle cx="460.334" cy="455.334" r="1" transform="rotate(-2.9811 460.334 455.334)" fill="white"/>
<circle cx="494.288" cy="453.566" r="1" transform="rotate(-2.9811 494.288 453.566)" fill="white"/>
<circle cx="528.242" cy="451.798" r="1" transform="rotate(-2.9811 528.242 451.798)" fill="white"/>
<circle cx="562.196" cy="450.03" r="1" transform="rotate(-2.9811 562.196 450.03)" fill="white"/>
<circle cx="596.15" cy="448.261" r="1" transform="rotate(-2.9811 596.15 448.261)" fill="white"/>
<circle cx="630.104" cy="446.493" r="1" transform="rotate(-2.9811 630.104 446.493)" fill="white"/>
<circle cx="664.058" cy="444.725" r="1" transform="rotate(-2.9811 664.058 444.725)" fill="white"/>
<circle cx="698.012" cy="442.957" r="1" transform="rotate(-2.9811 698.012 442.957)" fill="white"/>
<circle cx="731.966" cy="441.189" r="1" transform="rotate(-2.9811 731.966 441.189)" fill="white"/>
<circle cx="765.92" cy="439.42" r="1" transform="rotate(-2.9811 765.92 439.42)" fill="white"/>
<circle cx="799.874" cy="437.652" r="1" transform="rotate(-2.9811 799.874 437.652)" fill="white"/>
<circle cx="833.828" cy="435.884" r="1" transform="rotate(-2.9811 833.828 435.884)" fill="white"/>
<circle cx="867.782" cy="434.116" r="1" transform="rotate(-2.9811 867.782 434.116)" fill="white"/>
<circle cx="901.736" cy="432.348" r="1" transform="rotate(-2.9811 901.736 432.348)" fill="white"/>
<circle cx="935.69" cy="430.579" r="1" transform="rotate(-2.9811 935.69 430.579)" fill="white"/>
<circle cx="20.7006" cy="512.275" r="1" transform="rotate(-2.9811 20.7006 512.275)" fill="white"/>
<circle cx="54.6547" cy="510.507" r="1" transform="rotate(-2.9811 54.6547 510.507)" fill="white"/>
<circle cx="88.6083" cy="508.739" r="1" transform="rotate(-2.9811 88.6083 508.739)" fill="white"/>
<circle cx="122.562" cy="506.971" r="1" transform="rotate(-2.9811 122.562 506.971)" fill="white"/>
<circle cx="156.516" cy="505.202" r="1" transform="rotate(-2.9811 156.516 505.202)" fill="white"/>
<circle cx="190.471" cy="503.434" r="1" transform="rotate(-2.9811 190.471 503.434)" fill="white"/>
<circle cx="224.425" cy="501.666" r="1" transform="rotate(-2.9811 224.425 501.666)" fill="white"/>
<circle cx="258.378" cy="499.898" r="1" transform="rotate(-2.9811 258.378 499.898)" fill="white"/>
<circle cx="292.332" cy="498.13" r="1" transform="rotate(-2.9811 292.332 498.13)" fill="white"/>
<circle cx="326.286" cy="496.361" r="1" transform="rotate(-2.9811 326.286 496.361)" fill="white"/>
<circle cx="360.241" cy="494.593" r="1" transform="rotate(-2.9811 360.241 494.593)" fill="white"/>
<circle cx="394.194" cy="492.825" r="1" transform="rotate(-2.9811 394.194 492.825)" fill="white"/>
<circle cx="428.148" cy="491.057" r="1" transform="rotate(-2.9811 428.148 491.057)" fill="white"/>
<circle cx="462.102" cy="489.288" r="1" transform="rotate(-2.9811 462.102 489.288)" fill="white"/>
<circle cx="496.057" cy="487.52" r="1" transform="rotate(-2.9811 496.057 487.52)" fill="white"/>
<circle cx="530.01" cy="485.752" r="1" transform="rotate(-2.9811 530.01 485.752)" fill="white"/>
<circle cx="563.964" cy="483.984" r="1" transform="rotate(-2.9811 563.964 483.984)" fill="white"/>
<circle cx="597.918" cy="482.215" r="1" transform="rotate(-2.9811 597.918 482.215)" fill="white"/>
<circle cx="631.872" cy="480.447" r="1" transform="rotate(-2.9811 631.872 480.447)" fill="white"/>
<circle cx="665.827" cy="478.679" r="1" transform="rotate(-2.9811 665.827 478.679)" fill="white"/>
<circle cx="699.78" cy="476.911" r="1" transform="rotate(-2.9811 699.78 476.911)" fill="white"/>
<circle cx="733.734" cy="475.143" r="1" transform="rotate(-2.9811 733.734 475.143)" fill="white"/>
<circle cx="767.688" cy="473.374" r="1" transform="rotate(-2.9811 767.688 473.374)" fill="white"/>
<circle cx="801.642" cy="471.606" r="1" transform="rotate(-2.9811 801.642 471.606)" fill="white"/>
<circle cx="835.596" cy="469.838" r="1" transform="rotate(-2.9811 835.596 469.838)" fill="white"/>
<circle cx="869.55" cy="468.07" r="1" transform="rotate(-2.9811 869.55 468.07)" fill="white"/>
<circle cx="903.504" cy="466.302" r="1" transform="rotate(-2.9811 903.504 466.302)" fill="white"/>
<circle cx="937.458" cy="464.533" r="1" transform="rotate(-2.9811 937.458 464.533)" fill="white"/>
<circle cx="22.4691" cy="546.229" r="1" transform="rotate(-2.9811 22.4691 546.229)" fill="white"/>
<circle cx="56.4232" cy="544.461" r="1" transform="rotate(-2.9811 56.4232 544.461)" fill="white"/>
<circle cx="90.3768" cy="542.693" r="1" transform="rotate(-2.9811 90.3768 542.693)" fill="white"/>
<circle cx="124.331" cy="540.925" r="1" transform="rotate(-2.9811 124.331 540.925)" fill="white"/>
<circle cx="158.285" cy="539.156" r="1" transform="rotate(-2.9811 158.285 539.156)" fill="white"/>
<circle cx="192.239" cy="537.388" r="1" transform="rotate(-2.9811 192.239 537.388)" fill="white"/>
<circle cx="226.193" cy="535.62" r="1" transform="rotate(-2.9811 226.193 535.62)" fill="white"/>
<circle cx="260.147" cy="533.852" r="1" transform="rotate(-2.9811 260.147 533.852)" fill="white"/>
<circle cx="294.101" cy="532.083" r="1" transform="rotate(-2.9811 294.101 532.083)" fill="white"/>
<circle cx="328.055" cy="530.315" r="1" transform="rotate(-2.9811 328.055 530.315)" fill="white"/>
<circle cx="362.009" cy="528.547" r="1" transform="rotate(-2.9811 362.009 528.547)" fill="white"/>
<circle cx="395.963" cy="526.779" r="1" transform="rotate(-2.9811 395.963 526.779)" fill="white"/>
<circle cx="429.917" cy="525.011" r="1" transform="rotate(-2.9811 429.917 525.011)" fill="white"/>
<circle cx="463.871" cy="523.242" r="1" transform="rotate(-2.9811 463.871 523.242)" fill="white"/>
<circle cx="497.825" cy="521.474" r="1" transform="rotate(-2.9811 497.825 521.474)" fill="white"/>
<circle cx="531.779" cy="519.706" r="1" transform="rotate(-2.9811 531.779 519.706)" fill="white"/>
<circle cx="565.733" cy="517.938" r="1" transform="rotate(-2.9811 565.733 517.938)" fill="white"/>
<circle cx="599.687" cy="516.169" r="1" transform="rotate(-2.9811 599.687 516.169)" fill="white"/>
<circle cx="633.641" cy="514.401" r="1" transform="rotate(-2.9811 633.641 514.401)" fill="white"/>
<circle cx="667.595" cy="512.633" r="1" transform="rotate(-2.9811 667.595 512.633)" fill="white"/>
<circle cx="701.549" cy="510.865" r="1" transform="rotate(-2.9811 701.549 510.865)" fill="white"/>
<circle cx="735.503" cy="509.097" r="1" transform="rotate(-2.9811 735.503 509.097)" fill="white"/>
<circle cx="769.457" cy="507.328" r="1" transform="rotate(-2.9811 769.457 507.328)" fill="white"/>
<circle cx="803.411" cy="505.56" r="1" transform="rotate(-2.9811 803.411 505.56)" fill="white"/>
<circle cx="837.365" cy="503.792" r="1" transform="rotate(-2.9811 837.365 503.792)" fill="white"/>
<circle cx="871.319" cy="502.024" r="1" transform="rotate(-2.9811 871.319 502.024)" fill="white"/>
<circle cx="905.273" cy="500.255" r="1" transform="rotate(-2.9811 905.273 500.255)" fill="white"/>
<circle cx="939.227" cy="498.487" r="1" transform="rotate(-2.9811 939.227 498.487)" fill="white"/>
<circle cx="24.2372" cy="580.183" r="1" transform="rotate(-2.9811 24.2372 580.183)" fill="white"/>
<circle cx="58.1913" cy="578.415" r="1" transform="rotate(-2.9811 58.1913 578.415)" fill="white"/>
<circle cx="92.1449" cy="576.647" r="1" transform="rotate(-2.9811 92.1449 576.647)" fill="white"/>
<circle cx="126.099" cy="574.879" r="1" transform="rotate(-2.9811 126.099 574.879)" fill="white"/>
<circle cx="160.053" cy="573.11" r="1" transform="rotate(-2.9811 160.053 573.11)" fill="white"/>
<circle cx="194.007" cy="571.342" r="1" transform="rotate(-2.9811 194.007 571.342)" fill="white"/>
<circle cx="227.961" cy="569.574" r="1" transform="rotate(-2.9811 227.961 569.574)" fill="white"/>
<circle cx="261.915" cy="567.806" r="1" transform="rotate(-2.9811 261.915 567.806)" fill="white"/>
<circle cx="295.869" cy="566.037" r="1" transform="rotate(-2.9811 295.869 566.037)" fill="white"/>
<circle cx="329.823" cy="564.269" r="1" transform="rotate(-2.9811 329.823 564.269)" fill="white"/>
<circle cx="363.777" cy="562.501" r="1" transform="rotate(-2.9811 363.777 562.501)" fill="white"/>
<circle cx="397.731" cy="560.733" r="1" transform="rotate(-2.9811 397.731 560.733)" fill="white"/>
<circle cx="431.685" cy="558.965" r="1" transform="rotate(-2.9811 431.685 558.965)" fill="white"/>
<circle cx="465.639" cy="557.196" r="1" transform="rotate(-2.9811 465.639 557.196)" fill="white"/>
<circle cx="499.593" cy="555.428" r="1" transform="rotate(-2.9811 499.593 555.428)" fill="white"/>
<circle cx="533.547" cy="553.66" r="1" transform="rotate(-2.9811 533.547 553.66)" fill="white"/>
<circle cx="567.501" cy="551.892" r="1" transform="rotate(-2.9811 567.501 551.892)" fill="white"/>
<circle cx="601.455" cy="550.123" r="1" transform="rotate(-2.9811 601.455 550.123)" fill="white"/>
<circle cx="635.409" cy="548.355" r="1" transform="rotate(-2.9811 635.409 548.355)" fill="white"/>
<circle cx="669.363" cy="546.587" r="1" transform="rotate(-2.9811 669.363 546.587)" fill="white"/>
<circle cx="703.317" cy="544.819" r="1" transform="rotate(-2.9811 703.317 544.819)" fill="white"/>
<circle cx="737.271" cy="543.051" r="1" transform="rotate(-2.9811 737.271 543.051)" fill="white"/>
<circle cx="771.225" cy="541.282" r="1" transform="rotate(-2.9811 771.225 541.282)" fill="white"/>
<circle cx="805.179" cy="539.514" r="1" transform="rotate(-2.9811 805.179 539.514)" fill="white"/>
<circle cx="839.133" cy="537.746" r="1" transform="rotate(-2.9811 839.133 537.746)" fill="white"/>
<circle cx="873.087" cy="535.978" r="1" transform="rotate(-2.9811 873.087 535.978)" fill="white"/>
<circle cx="907.041" cy="534.209" r="1" transform="rotate(-2.9811 907.041 534.209)" fill="white"/>
<circle cx="940.995" cy="532.441" r="1" transform="rotate(-2.9811 940.995 532.441)" fill="white"/>
<circle cx="26.0052" cy="614.137" r="1" transform="rotate(-2.9811 26.0052 614.137)" fill="white"/>
<circle cx="59.9593" cy="612.369" r="1" transform="rotate(-2.9811 59.9593 612.369)" fill="white"/>
<circle cx="93.913" cy="610.601" r="1" transform="rotate(-2.9811 93.913 610.601)" fill="white"/>
<circle cx="127.867" cy="608.833" r="1" transform="rotate(-2.9811 127.867 608.833)" fill="white"/>
<circle cx="161.821" cy="607.064" r="1" transform="rotate(-2.9811 161.821 607.064)" fill="white"/>
<circle cx="195.775" cy="605.296" r="1" transform="rotate(-2.9811 195.775 605.296)" fill="white"/>
<circle cx="229.729" cy="603.528" r="1" transform="rotate(-2.9811 229.729 603.528)" fill="white"/>
<circle cx="263.683" cy="601.76" r="1" transform="rotate(-2.9811 263.683 601.76)" fill="white"/>
<circle cx="297.637" cy="599.991" r="1" transform="rotate(-2.9811 297.637 599.991)" fill="white"/>
<circle cx="331.591" cy="598.223" r="1" transform="rotate(-2.9811 331.591 598.223)" fill="white"/>
<circle cx="365.545" cy="596.455" r="1" transform="rotate(-2.9811 365.545 596.455)" fill="white"/>
<circle cx="399.499" cy="594.687" r="1" transform="rotate(-2.9811 399.499 594.687)" fill="white"/>
<circle cx="433.453" cy="592.919" r="1" transform="rotate(-2.9811 433.453 592.919)" fill="white"/>
<circle cx="467.407" cy="591.15" r="1" transform="rotate(-2.9811 467.407 591.15)" fill="white"/>
<circle cx="501.361" cy="589.382" r="1" transform="rotate(-2.9811 501.361 589.382)" fill="white"/>
<circle cx="535.315" cy="587.614" r="1" transform="rotate(-2.9811 535.315 587.614)" fill="white"/>
<circle cx="569.269" cy="585.846" r="1" transform="rotate(-2.9811 569.269 585.846)" fill="white"/>
<circle cx="603.223" cy="584.077" r="1" transform="rotate(-2.9811 603.223 584.077)" fill="white"/>
<circle cx="637.177" cy="582.309" r="1" transform="rotate(-2.9811 637.177 582.309)" fill="white"/>
<circle cx="671.131" cy="580.541" r="1" transform="rotate(-2.9811 671.131 580.541)" fill="white"/>
<circle cx="705.085" cy="578.773" r="1" transform="rotate(-2.9811 705.085 578.773)" fill="white"/>
<circle cx="739.039" cy="577.005" r="1" transform="rotate(-2.9811 739.039 577.005)" fill="white"/>
<circle cx="772.993" cy="575.236" r="1" transform="rotate(-2.9811 772.993 575.236)" fill="white"/>
<circle cx="806.947" cy="573.468" r="1" transform="rotate(-2.9811 806.947 573.468)" fill="white"/>
<circle cx="840.901" cy="571.7" r="1" transform="rotate(-2.9811 840.901 571.7)" fill="white"/>
<circle cx="874.855" cy="569.932" r="1" transform="rotate(-2.9811 874.855 569.932)" fill="white"/>
<circle cx="908.809" cy="568.163" r="1" transform="rotate(-2.9811 908.809 568.163)" fill="white"/>
<circle cx="942.763" cy="566.395" r="1" transform="rotate(-2.9811 942.763 566.395)" fill="white"/>
<circle cx="27.7733" cy="648.091" r="1" transform="rotate(-2.9811 27.7733 648.091)" fill="white"/>
<circle cx="61.7274" cy="646.323" r="1" transform="rotate(-2.9811 61.7274 646.323)" fill="white"/>
<circle cx="95.681" cy="644.555" r="1" transform="rotate(-2.9811 95.681 644.555)" fill="white"/>
<circle cx="129.635" cy="642.786" r="1" transform="rotate(-2.9811 129.635 642.786)" fill="white"/>
<circle cx="163.589" cy="641.018" r="1" transform="rotate(-2.9811 163.589 641.018)" fill="white"/>
<circle cx="197.543" cy="639.25" r="1" transform="rotate(-2.9811 197.543 639.25)" fill="white"/>
<circle cx="231.497" cy="637.482" r="1" transform="rotate(-2.9811 231.497 637.482)" fill="white"/>
<circle cx="265.451" cy="635.714" r="1" transform="rotate(-2.9811 265.451 635.714)" fill="white"/>
<circle cx="299.405" cy="633.945" r="1" transform="rotate(-2.9811 299.405 633.945)" fill="white"/>
<circle cx="333.359" cy="632.177" r="1" transform="rotate(-2.9811 333.359 632.177)" fill="white"/>
<circle cx="367.313" cy="630.409" r="1" transform="rotate(-2.9811 367.313 630.409)" fill="white"/>
<circle cx="401.267" cy="628.641" r="1" transform="rotate(-2.9811 401.267 628.641)" fill="white"/>
<circle cx="435.221" cy="626.873" r="1" transform="rotate(-2.9811 435.221 626.873)" fill="white"/>
<circle cx="469.175" cy="625.104" r="1" transform="rotate(-2.9811 469.175 625.104)" fill="white"/>
<circle cx="503.129" cy="623.336" r="1" transform="rotate(-2.9811 503.129 623.336)" fill="white"/>
<circle cx="537.083" cy="621.568" r="1" transform="rotate(-2.9811 537.083 621.568)" fill="white"/>
<circle cx="571.037" cy="619.8" r="1" transform="rotate(-2.9811 571.037 619.8)" fill="white"/>
<circle cx="604.991" cy="618.031" r="1" transform="rotate(-2.9811 604.991 618.031)" fill="white"/>
<circle cx="638.945" cy="616.263" r="1" transform="rotate(-2.9811 638.945 616.263)" fill="white"/>
<circle cx="672.899" cy="614.495" r="1" transform="rotate(-2.9811 672.899 614.495)" fill="white"/>
<circle cx="706.853" cy="612.727" r="1" transform="rotate(-2.9811 706.853 612.727)" fill="white"/>
<circle cx="740.807" cy="610.958" r="1" transform="rotate(-2.9811 740.807 610.958)" fill="white"/>
<circle cx="774.761" cy="609.19" r="1" transform="rotate(-2.9811 774.761 609.19)" fill="white"/>
<circle cx="808.715" cy="607.422" r="1" transform="rotate(-2.9811 808.715 607.422)" fill="white"/>
<circle cx="842.669" cy="605.654" r="1" transform="rotate(-2.9811 842.669 605.654)" fill="white"/>
<circle cx="876.623" cy="603.886" r="1" transform="rotate(-2.9811 876.623 603.886)" fill="white"/>
<circle cx="910.577" cy="602.117" r="1" transform="rotate(-2.9811 910.577 602.117)" fill="white"/>
<circle cx="944.531" cy="600.349" r="1" transform="rotate(-2.9811 944.531 600.349)" fill="white"/>
<circle cx="29.5419" cy="682.045" r="1" transform="rotate(-2.9811 29.5419 682.045)" fill="white"/>
<circle cx="63.496" cy="680.277" r="1" transform="rotate(-2.9811 63.496 680.277)" fill="white"/>
<circle cx="97.4496" cy="678.509" r="1" transform="rotate(-2.9811 97.4496 678.509)" fill="white"/>
<circle cx="131.404" cy="676.74" r="1" transform="rotate(-2.9811 131.404 676.74)" fill="white"/>
<circle cx="165.358" cy="674.972" r="1" transform="rotate(-2.9811 165.358 674.972)" fill="white"/>
<circle cx="199.312" cy="673.204" r="1" transform="rotate(-2.9811 199.312 673.204)" fill="white"/>
<circle cx="233.266" cy="671.436" r="1" transform="rotate(-2.9811 233.266 671.436)" fill="white"/>
<circle cx="267.22" cy="669.668" r="1" transform="rotate(-2.9811 267.22 669.668)" fill="white"/>
<circle cx="301.174" cy="667.899" r="1" transform="rotate(-2.9811 301.174 667.899)" fill="white"/>
<circle cx="335.128" cy="666.131" r="1" transform="rotate(-2.9811 335.128 666.131)" fill="white"/>
<circle cx="369.082" cy="664.363" r="1" transform="rotate(-2.9811 369.082 664.363)" fill="white"/>
<circle cx="403.036" cy="662.595" r="1" transform="rotate(-2.9811 403.036 662.595)" fill="white"/>
<circle cx="436.99" cy="660.827" r="1" transform="rotate(-2.9811 436.99 660.827)" fill="white"/>
<circle cx="470.944" cy="659.058" r="1" transform="rotate(-2.9811 470.944 659.058)" fill="white"/>
<circle cx="504.898" cy="657.29" r="1" transform="rotate(-2.9811 504.898 657.29)" fill="white"/>
<circle cx="538.851" cy="655.522" r="1" transform="rotate(-2.9811 538.851 655.522)" fill="white"/>
<circle cx="572.806" cy="653.754" r="1" transform="rotate(-2.9811 572.806 653.754)" fill="white"/>
<circle cx="606.76" cy="651.985" r="1" transform="rotate(-2.9811 606.76 651.985)" fill="white"/>
<circle cx="640.714" cy="650.217" r="1" transform="rotate(-2.9811 640.714 650.217)" fill="white"/>
<circle cx="674.668" cy="648.449" r="1" transform="rotate(-2.9811 674.668 648.449)" fill="white"/>
<circle cx="708.621" cy="646.681" r="1" transform="rotate(-2.9811 708.621 646.681)" fill="white"/>
<circle cx="742.576" cy="644.912" r="1" transform="rotate(-2.9811 742.576 644.912)" fill="white"/>
<circle cx="776.53" cy="643.144" r="1" transform="rotate(-2.9811 776.53 643.144)" fill="white"/>
<circle cx="810.484" cy="641.376" r="1" transform="rotate(-2.9811 810.484 641.376)" fill="white"/>
<circle cx="844.437" cy="639.608" r="1" transform="rotate(-2.9811 844.437 639.608)" fill="white"/>
<circle cx="878.391" cy="637.84" r="1" transform="rotate(-2.9811 878.391 637.84)" fill="white"/>
<circle cx="912.346" cy="636.071" r="1" transform="rotate(-2.9811 912.346 636.071)" fill="white"/>
<circle cx="946.3" cy="634.303" r="1" transform="rotate(-2.9811 946.3 634.303)" fill="white"/>
<circle cx="31.3099" cy="715.999" r="1" transform="rotate(-2.9811 31.3099 715.999)" fill="white"/>
<circle cx="65.264" cy="714.231" r="1" transform="rotate(-2.9811 65.264 714.231)" fill="white"/>
<circle cx="99.2176" cy="712.463" r="1" transform="rotate(-2.9811 99.2176 712.463)" fill="white"/>
<circle cx="133.172" cy="710.694" r="1" transform="rotate(-2.9811 133.172 710.694)" fill="white"/>
<circle cx="167.126" cy="708.926" r="1" transform="rotate(-2.9811 167.126 708.926)" fill="white"/>
<circle cx="201.08" cy="707.158" r="1" transform="rotate(-2.9811 201.08 707.158)" fill="white"/>
<circle cx="235.034" cy="705.39" r="1" transform="rotate(-2.9811 235.034 705.39)" fill="white"/>
<circle cx="268.988" cy="703.622" r="1" transform="rotate(-2.9811 268.988 703.622)" fill="white"/>
<circle cx="302.942" cy="701.853" r="1" transform="rotate(-2.9811 302.942 701.853)" fill="white"/>
<circle cx="336.896" cy="700.085" r="1" transform="rotate(-2.9811 336.896 700.085)" fill="white"/>
<circle cx="370.85" cy="698.317" r="1" transform="rotate(-2.9811 370.85 698.317)" fill="white"/>
<circle cx="404.804" cy="696.549" r="1" transform="rotate(-2.9811 404.804 696.549)" fill="white"/>
<circle cx="438.758" cy="694.781" r="1" transform="rotate(-2.9811 438.758 694.781)" fill="white"/>
<circle cx="472.712" cy="693.012" r="1" transform="rotate(-2.9811 472.712 693.012)" fill="white"/>
<circle cx="506.666" cy="691.244" r="1" transform="rotate(-2.9811 506.666 691.244)" fill="white"/>
<circle cx="540.62" cy="689.476" r="1" transform="rotate(-2.9811 540.62 689.476)" fill="white"/>
<circle cx="574.574" cy="687.708" r="1" transform="rotate(-2.9811 574.574 687.708)" fill="white"/>
<circle cx="608.528" cy="685.939" r="1" transform="rotate(-2.9811 608.528 685.939)" fill="white"/>
<circle cx="642.482" cy="684.171" r="1" transform="rotate(-2.9811 642.482 684.171)" fill="white"/>
<circle cx="676.436" cy="682.403" r="1" transform="rotate(-2.9811 676.436 682.403)" fill="white"/>
<circle cx="710.39" cy="680.635" r="1" transform="rotate(-2.9811 710.39 680.635)" fill="white"/>
<circle cx="744.344" cy="678.866" r="1" transform="rotate(-2.9811 744.344 678.866)" fill="white"/>
<circle cx="778.298" cy="677.098" r="1" transform="rotate(-2.9811 778.298 677.098)" fill="white"/>
<circle cx="812.252" cy="675.33" r="1" transform="rotate(-2.9811 812.252 675.33)" fill="white"/>
<circle cx="846.205" cy="673.562" r="1" transform="rotate(-2.9811 846.205 673.562)" fill="white"/>
<circle cx="880.16" cy="671.794" r="1" transform="rotate(-2.9811 880.16 671.794)" fill="white"/>
<circle cx="914.114" cy="670.025" r="1" transform="rotate(-2.9811 914.114 670.025)" fill="white"/>
<circle cx="948.068" cy="668.257" r="1" transform="rotate(-2.9811 948.068 668.257)" fill="white"/>
<circle cx="-0.876105" cy="751.721" r="1" transform="rotate(-2.9811 -0.876105 751.721)" fill="white"/>
<circle cx="33.078" cy="749.953" r="1" transform="rotate(-2.9811 33.078 749.953)" fill="white"/>
<circle cx="67.0321" cy="748.185" r="1" transform="rotate(-2.9811 67.0321 748.185)" fill="white"/>
<circle cx="100.986" cy="746.417" r="1" transform="rotate(-2.9811 100.986 746.417)" fill="white"/>
<circle cx="134.94" cy="744.648" r="1" transform="rotate(-2.9811 134.94 744.648)" fill="white"/>
<circle cx="168.894" cy="742.88" r="1" transform="rotate(-2.9811 168.894 742.88)" fill="white"/>
<circle cx="202.848" cy="741.112" r="1" transform="rotate(-2.9811 202.848 741.112)" fill="white"/>
<circle cx="236.802" cy="739.344" r="1" transform="rotate(-2.9811 236.802 739.344)" fill="white"/>
<circle cx="270.756" cy="737.576" r="1" transform="rotate(-2.9811 270.756 737.576)" fill="white"/>
<circle cx="304.71" cy="735.807" r="1" transform="rotate(-2.9811 304.71 735.807)" fill="white"/>
<circle cx="338.664" cy="734.039" r="1" transform="rotate(-2.9811 338.664 734.039)" fill="white"/>
<circle cx="372.618" cy="732.271" r="1" transform="rotate(-2.9811 372.618 732.271)" fill="white"/>
<circle cx="406.572" cy="730.503" r="1" transform="rotate(-2.9811 406.572 730.503)" fill="white"/>
<circle cx="440.526" cy="728.734" r="1" transform="rotate(-2.9811 440.526 728.734)" fill="white"/>
<circle cx="474.48" cy="726.966" r="1" transform="rotate(-2.9811 474.48 726.966)" fill="white"/>
<circle cx="508.434" cy="725.198" r="1" transform="rotate(-2.9811 508.434 725.198)" fill="white"/>
<circle cx="542.388" cy="723.43" r="1" transform="rotate(-2.9811 542.388 723.43)" fill="white"/>
<circle cx="576.342" cy="721.662" r="1" transform="rotate(-2.9811 576.342 721.662)" fill="white"/>
<circle cx="610.296" cy="719.893" r="1" transform="rotate(-2.9811 610.296 719.893)" fill="white"/>
<circle cx="644.25" cy="718.125" r="1" transform="rotate(-2.9811 644.25 718.125)" fill="white"/>
<circle cx="678.204" cy="716.357" r="1" transform="rotate(-2.9811 678.204 716.357)" fill="white"/>
<circle cx="712.158" cy="714.589" r="1" transform="rotate(-2.9811 712.158 714.589)" fill="white"/>
<circle cx="746.112" cy="712.82" r="1" transform="rotate(-2.9811 746.112 712.82)" fill="white"/>
<circle cx="780.066" cy="711.052" r="1" transform="rotate(-2.9811 780.066 711.052)" fill="white"/>
<circle cx="814.02" cy="709.284" r="1" transform="rotate(-2.9811 814.02 709.284)" fill="white"/>
<circle cx="847.974" cy="707.516" r="1" transform="rotate(-2.9811 847.974 707.516)" fill="white"/>
<circle cx="881.928" cy="705.748" r="1" transform="rotate(-2.9811 881.928 705.748)" fill="white"/>
<circle cx="915.882" cy="703.979" r="1" transform="rotate(-2.9811 915.882 703.979)" fill="white"/>
<circle cx="0.89245" cy="785.675" r="1" transform="rotate(-2.9811 0.89245 785.675)" fill="white"/>
<circle cx="34.8465" cy="783.907" r="1" transform="rotate(-2.9811 34.8465 783.907)" fill="white"/>
<circle cx="68.8007" cy="782.139" r="1" transform="rotate(-2.9811 68.8007 782.139)" fill="white"/>
<circle cx="102.754" cy="780.371" r="1" transform="rotate(-2.9811 102.754 780.371)" fill="white"/>
<circle cx="136.708" cy="778.602" r="1" transform="rotate(-2.9811 136.708 778.602)" fill="white"/>
<circle cx="170.662" cy="776.834" r="1" transform="rotate(-2.9811 170.662 776.834)" fill="white"/>
<circle cx="204.617" cy="775.066" r="1" transform="rotate(-2.9811 204.617 775.066)" fill="white"/>
<circle cx="238.571" cy="773.298" r="1" transform="rotate(-2.9811 238.571 773.298)" fill="white"/>
<circle cx="272.524" cy="771.53" r="1" transform="rotate(-2.9811 272.524 771.53)" fill="white"/>
<circle cx="306.478" cy="769.761" r="1" transform="rotate(-2.9811 306.478 769.761)" fill="white"/>
<circle cx="340.432" cy="767.993" r="1" transform="rotate(-2.9811 340.432 767.993)" fill="white"/>
<circle cx="374.387" cy="766.225" r="1" transform="rotate(-2.9811 374.387 766.225)" fill="white"/>
<circle cx="408.34" cy="764.457" r="1" transform="rotate(-2.9811 408.34 764.457)" fill="white"/>
<circle cx="442.294" cy="762.688" r="1" transform="rotate(-2.9811 442.294 762.688)" fill="white"/>
<circle cx="476.248" cy="760.92" r="1" transform="rotate(-2.9811 476.248 760.92)" fill="white"/>
<circle cx="510.203" cy="759.152" r="1" transform="rotate(-2.9811 510.203 759.152)" fill="white"/>
<circle cx="544.156" cy="757.384" r="1" transform="rotate(-2.9811 544.156 757.384)" fill="white"/>
<circle cx="578.11" cy="755.616" r="1" transform="rotate(-2.9811 578.11 755.616)" fill="white"/>
<circle cx="612.064" cy="753.847" r="1" transform="rotate(-2.9811 612.064 753.847)" fill="white"/>
<circle cx="646.018" cy="752.079" r="1" transform="rotate(-2.9811 646.018 752.079)" fill="white"/>
<circle cx="679.973" cy="750.311" r="1" transform="rotate(-2.9811 679.973 750.311)" fill="white"/>
<circle cx="713.926" cy="748.543" r="1" transform="rotate(-2.9811 713.926 748.543)" fill="white"/>
<circle cx="747.88" cy="746.774" r="1" transform="rotate(-2.9811 747.88 746.774)" fill="white"/>
<circle cx="781.834" cy="745.006" r="1" transform="rotate(-2.9811 781.834 745.006)" fill="white"/>
<circle cx="815.788" cy="743.238" r="1" transform="rotate(-2.9811 815.788 743.238)" fill="white"/>
<circle cx="849.742" cy="741.47" r="1" transform="rotate(-2.9811 849.742 741.47)" fill="white"/>
<circle cx="883.696" cy="739.702" r="1" transform="rotate(-2.9811 883.696 739.702)" fill="white"/>
<circle cx="917.65" cy="737.933" r="1" transform="rotate(-2.9811 917.65 737.933)" fill="white"/>
<circle cx="2.66052" cy="819.629" r="1" transform="rotate(-2.9811 2.66052 819.629)" fill="white"/>
<circle cx="36.6146" cy="817.861" r="1" transform="rotate(-2.9811 36.6146 817.861)" fill="white"/>
<circle cx="70.5687" cy="816.093" r="1" transform="rotate(-2.9811 70.5687 816.093)" fill="white"/>
<circle cx="104.522" cy="814.325" r="1" transform="rotate(-2.9811 104.522 814.325)" fill="white"/>
<circle cx="138.476" cy="812.556" r="1" transform="rotate(-2.9811 138.476 812.556)" fill="white"/>
<circle cx="172.431" cy="810.788" r="1" transform="rotate(-2.9811 172.431 810.788)" fill="white"/>
<circle cx="206.385" cy="809.02" r="1" transform="rotate(-2.9811 206.385 809.02)" fill="white"/>
<circle cx="240.339" cy="807.252" r="1" transform="rotate(-2.9811 240.339 807.252)" fill="white"/>
<circle cx="274.292" cy="805.484" r="1" transform="rotate(-2.9811 274.292 805.484)" fill="white"/>
<circle cx="308.246" cy="803.715" r="1" transform="rotate(-2.9811 308.246 803.715)" fill="white"/>
<circle cx="342.201" cy="801.947" r="1" transform="rotate(-2.9811 342.201 801.947)" fill="white"/>
<circle cx="376.155" cy="800.179" r="1" transform="rotate(-2.9811 376.155 800.179)" fill="white"/>
<circle cx="410.108" cy="798.411" r="1" transform="rotate(-2.9811 410.108 798.411)" fill="white"/>
<circle cx="444.062" cy="796.642" r="1" transform="rotate(-2.9811 444.062 796.642)" fill="white"/>
<circle cx="478.016" cy="794.874" r="1" transform="rotate(-2.9811 478.016 794.874)" fill="white"/>
<circle cx="511.971" cy="793.106" r="1" transform="rotate(-2.9811 511.971 793.106)" fill="white"/>
<circle cx="545.924" cy="791.338" r="1" transform="rotate(-2.9811 545.924 791.338)" fill="white"/>
<circle cx="579.878" cy="789.57" r="1" transform="rotate(-2.9811 579.878 789.57)" fill="white"/>
<circle cx="613.832" cy="787.801" r="1" transform="rotate(-2.9811 613.832 787.801)" fill="white"/>
<circle cx="647.786" cy="786.033" r="1" transform="rotate(-2.9811 647.786 786.033)" fill="white"/>
<circle cx="681.741" cy="784.265" r="1" transform="rotate(-2.9811 681.741 784.265)" fill="white"/>
<circle cx="715.694" cy="782.497" r="1" transform="rotate(-2.9811 715.694 782.497)" fill="white"/>
<circle cx="749.648" cy="780.728" r="1" transform="rotate(-2.9811 749.648 780.728)" fill="white"/>
<circle cx="783.602" cy="778.96" r="1" transform="rotate(-2.9811 783.602 778.96)" fill="white"/>
<circle cx="817.557" cy="777.192" r="1" transform="rotate(-2.9811 817.557 777.192)" fill="white"/>
<circle cx="851.51" cy="775.424" r="1" transform="rotate(-2.9811 851.51 775.424)" fill="white"/>
<circle cx="885.464" cy="773.656" r="1" transform="rotate(-2.9811 885.464 773.656)" fill="white"/>
<circle cx="919.418" cy="771.887" r="1" transform="rotate(-2.9811 919.418 771.887)" fill="white"/>
<circle cx="4.42858" cy="853.583" r="1" transform="rotate(-2.9811 4.42858 853.583)" fill="white"/>
<circle cx="38.3827" cy="851.815" r="1" transform="rotate(-2.9811 38.3827 851.815)" fill="white"/>
<circle cx="72.3368" cy="850.047" r="1" transform="rotate(-2.9811 72.3368 850.047)" fill="white"/>
<circle cx="106.29" cy="848.279" r="1" transform="rotate(-2.9811 106.29 848.279)" fill="white"/>
<circle cx="140.245" cy="846.51" r="1" transform="rotate(-2.9811 140.245 846.51)" fill="white"/>
<circle cx="174.199" cy="844.742" r="1" transform="rotate(-2.9811 174.199 844.742)" fill="white"/>
<circle cx="208.153" cy="842.974" r="1" transform="rotate(-2.9811 208.153 842.974)" fill="white"/>
<circle cx="242.107" cy="841.206" r="1" transform="rotate(-2.9811 242.107 841.206)" fill="white"/>
<circle cx="276.06" cy="839.438" r="1" transform="rotate(-2.9811 276.06 839.438)" fill="white"/>
<circle cx="310.015" cy="837.669" r="1" transform="rotate(-2.9811 310.015 837.669)" fill="white"/>
<circle cx="343.969" cy="835.901" r="1" transform="rotate(-2.9811 343.969 835.901)" fill="white"/>
<circle cx="377.923" cy="834.133" r="1" transform="rotate(-2.9811 377.923 834.133)" fill="white"/>
<circle cx="411.876" cy="832.365" r="1" transform="rotate(-2.9811 411.876 832.365)" fill="white"/>
<circle cx="445.83" cy="830.597" r="1" transform="rotate(-2.9811 445.83 830.597)" fill="white"/>
<circle cx="479.785" cy="828.828" r="1" transform="rotate(-2.9811 479.785 828.828)" fill="white"/>
<circle cx="513.739" cy="827.06" r="1" transform="rotate(-2.9811 513.739 827.06)" fill="white"/>
<circle cx="547.692" cy="825.292" r="1" transform="rotate(-2.9811 547.692 825.292)" fill="white"/>
<circle cx="581.646" cy="823.524" r="1" transform="rotate(-2.9811 581.646 823.524)" fill="white"/>
<circle cx="615.6" cy="821.755" r="1" transform="rotate(-2.9811 615.6 821.755)" fill="white"/>
<circle cx="649.555" cy="819.987" r="1" transform="rotate(-2.9811 649.555 819.987)" fill="white"/>
<circle cx="683.509" cy="818.219" r="1" transform="rotate(-2.9811 683.509 818.219)" fill="white"/>
<circle cx="717.462" cy="816.451" r="1" transform="rotate(-2.9811 717.462 816.451)" fill="white"/>
<circle cx="751.416" cy="814.682" r="1" transform="rotate(-2.9811 751.416 814.682)" fill="white"/>
<circle cx="785.37" cy="812.914" r="1" transform="rotate(-2.9811 785.37 812.914)" fill="white"/>
<circle cx="819.325" cy="811.146" r="1" transform="rotate(-2.9811 819.325 811.146)" fill="white"/>
<circle cx="853.278" cy="809.378" r="1" transform="rotate(-2.9811 853.278 809.378)" fill="white"/>
<circle cx="887.232" cy="807.61" r="1" transform="rotate(-2.9811 887.232 807.61)" fill="white"/>
<circle cx="921.186" cy="805.841" r="1" transform="rotate(-2.9811 921.186 805.841)" fill="white"/>
<circle cx="6.19714" cy="887.537" r="1" transform="rotate(-2.9811 6.19714 887.537)" fill="white"/>
<circle cx="40.1512" cy="885.769" r="1" transform="rotate(-2.9811 40.1512 885.769)" fill="white"/>
<circle cx="74.1053" cy="884.001" r="1" transform="rotate(-2.9811 74.1053 884.001)" fill="white"/>
<circle cx="108.059" cy="882.233" r="1" transform="rotate(-2.9811 108.059 882.233)" fill="white"/>
<circle cx="142.013" cy="880.464" r="1" transform="rotate(-2.9811 142.013 880.464)" fill="white"/>
<circle cx="175.967" cy="878.696" r="1" transform="rotate(-2.9811 175.967 878.696)" fill="white"/>
<circle cx="209.921" cy="876.928" r="1" transform="rotate(-2.9811 209.921 876.928)" fill="white"/>
<circle cx="243.875" cy="875.16" r="1" transform="rotate(-2.9811 243.875 875.16)" fill="white"/>
<circle cx="277.829" cy="873.392" r="1" transform="rotate(-2.9811 277.829 873.392)" fill="white"/>
<circle cx="311.783" cy="871.623" r="1" transform="rotate(-2.9811 311.783 871.623)" fill="white"/>
<circle cx="345.737" cy="869.855" r="1" transform="rotate(-2.9811 345.737 869.855)" fill="white"/>
<circle cx="379.691" cy="868.087" r="1" transform="rotate(-2.9811 379.691 868.087)" fill="white"/>
<circle cx="413.645" cy="866.319" r="1" transform="rotate(-2.9811 413.645 866.319)" fill="white"/>
<circle cx="447.599" cy="864.551" r="1" transform="rotate(-2.9811 447.599 864.551)" fill="white"/>
<circle cx="481.553" cy="862.782" r="1" transform="rotate(-2.9811 481.553 862.782)" fill="white"/>
<circle cx="515.507" cy="861.014" r="1" transform="rotate(-2.9811 515.507 861.014)" fill="white"/>
<circle cx="549.461" cy="859.246" r="1" transform="rotate(-2.9811 549.461 859.246)" fill="white"/>
<circle cx="583.415" cy="857.478" r="1" transform="rotate(-2.9811 583.415 857.478)" fill="white"/>
<circle cx="617.369" cy="855.709" r="1" transform="rotate(-2.9811 617.369 855.709)" fill="white"/>
<circle cx="651.323" cy="853.941" r="1" transform="rotate(-2.9811 651.323 853.941)" fill="white"/>
<circle cx="685.277" cy="852.173" r="1" transform="rotate(-2.9811 685.277 852.173)" fill="white"/>
<circle cx="719.231" cy="850.405" r="1" transform="rotate(-2.9811 719.231 850.405)" fill="white"/>
<circle cx="753.185" cy="848.636" r="1" transform="rotate(-2.9811 753.185 848.636)" fill="white"/>
<circle cx="787.139" cy="846.868" r="1" transform="rotate(-2.9811 787.139 846.868)" fill="white"/>
<circle cx="821.093" cy="845.1" r="1" transform="rotate(-2.9811 821.093 845.1)" fill="white"/>
<circle cx="855.047" cy="843.332" r="1" transform="rotate(-2.9811 855.047 843.332)" fill="white"/>
<circle cx="889.001" cy="841.564" r="1" transform="rotate(-2.9811 889.001 841.564)" fill="white"/>
<circle cx="922.955" cy="839.795" r="1" transform="rotate(-2.9811 922.955 839.795)" fill="white"/>
<circle cx="7.9652" cy="921.491" r="1" transform="rotate(-2.9811 7.9652 921.491)" fill="white"/>
<circle cx="41.9193" cy="919.723" r="1" transform="rotate(-2.9811 41.9193 919.723)" fill="white"/>
<circle cx="75.8734" cy="917.955" r="1" transform="rotate(-2.9811 75.8734 917.955)" fill="white"/>
<circle cx="109.827" cy="916.187" r="1" transform="rotate(-2.9811 109.827 916.187)" fill="white"/>
<circle cx="143.781" cy="914.418" r="1" transform="rotate(-2.9811 143.781 914.418)" fill="white"/>
<circle cx="177.735" cy="912.65" r="1" transform="rotate(-2.9811 177.735 912.65)" fill="white"/>
<circle cx="211.689" cy="910.882" r="1" transform="rotate(-2.9811 211.689 910.882)" fill="white"/>
<circle cx="245.643" cy="909.114" r="1" transform="rotate(-2.9811 245.643 909.114)" fill="white"/>
<circle cx="279.597" cy="907.346" r="1" transform="rotate(-2.9811 279.597 907.346)" fill="white"/>
<circle cx="313.551" cy="905.577" r="1" transform="rotate(-2.9811 313.551 905.577)" fill="white"/>
<circle cx="347.505" cy="903.809" r="1" transform="rotate(-2.9811 347.505 903.809)" fill="white"/>
<circle cx="381.459" cy="902.041" r="1" transform="rotate(-2.9811 381.459 902.041)" fill="white"/>
<circle cx="415.413" cy="900.273" r="1" transform="rotate(-2.9811 415.413 900.273)" fill="white"/>
<circle cx="449.367" cy="898.505" r="1" transform="rotate(-2.9811 449.367 898.505)" fill="white"/>
<circle cx="483.321" cy="896.736" r="1" transform="rotate(-2.9811 483.321 896.736)" fill="white"/>
<circle cx="517.275" cy="894.968" r="1" transform="rotate(-2.9811 517.275 894.968)" fill="white"/>
<circle cx="551.229" cy="893.2" r="1" transform="rotate(-2.9811 551.229 893.2)" fill="white"/>
<circle cx="585.183" cy="891.432" r="1" transform="rotate(-2.9811 585.183 891.432)" fill="white"/>
<circle cx="619.137" cy="889.663" r="1" transform="rotate(-2.9811 619.137 889.663)" fill="white"/>
<circle cx="653.091" cy="887.895" r="1" transform="rotate(-2.9811 653.091 887.895)" fill="white"/>
<circle cx="687.045" cy="886.127" r="1" transform="rotate(-2.9811 687.045 886.127)" fill="white"/>
<circle cx="720.999" cy="884.359" r="1" transform="rotate(-2.9811 720.999 884.359)" fill="white"/>
<circle cx="754.953" cy="882.59" r="1" transform="rotate(-2.9811 754.953 882.59)" fill="white"/>
<circle cx="788.907" cy="880.822" r="1" transform="rotate(-2.9811 788.907 880.822)" fill="white"/>
<circle cx="822.861" cy="879.054" r="1" transform="rotate(-2.9811 822.861 879.054)" fill="white"/>
<circle cx="856.815" cy="877.286" r="1" transform="rotate(-2.9811 856.815 877.286)" fill="white"/>
<circle cx="890.769" cy="875.518" r="1" transform="rotate(-2.9811 890.769 875.518)" fill="white"/>
<circle cx="924.723" cy="873.749" r="1" transform="rotate(-2.9811 924.723 873.749)" fill="white"/>
<circle cx="9.73327" cy="955.445" r="1" transform="rotate(-2.9811 9.73327 955.445)" fill="white"/>
<circle cx="43.6874" cy="953.677" r="1" transform="rotate(-2.9811 43.6874 953.677)" fill="white"/>
<circle cx="77.6415" cy="951.909" r="1" transform="rotate(-2.9811 77.6415 951.909)" fill="white"/>
<circle cx="111.595" cy="950.141" r="1" transform="rotate(-2.9811 111.595 950.141)" fill="white"/>
<circle cx="145.549" cy="948.372" r="1" transform="rotate(-2.9811 145.549 948.372)" fill="white"/>
<circle cx="179.503" cy="946.604" r="1" transform="rotate(-2.9811 179.503 946.604)" fill="white"/>
<circle cx="213.457" cy="944.836" r="1" transform="rotate(-2.9811 213.457 944.836)" fill="white"/>
<circle cx="247.411" cy="943.068" r="1" transform="rotate(-2.9811 247.411 943.068)" fill="white"/>
<circle cx="281.365" cy="941.3" r="1" transform="rotate(-2.9811 281.365 941.3)" fill="white"/>
<circle cx="315.319" cy="939.531" r="1" transform="rotate(-2.9811 315.319 939.531)" fill="white"/>
<circle cx="349.273" cy="937.763" r="1" transform="rotate(-2.9811 349.273 937.763)" fill="white"/>
<circle cx="383.227" cy="935.995" r="1" transform="rotate(-2.9811 383.227 935.995)" fill="white"/>
<circle cx="417.181" cy="934.227" r="1" transform="rotate(-2.9811 417.181 934.227)" fill="white"/>
<circle cx="451.135" cy="932.458" r="1" transform="rotate(-2.9811 451.135 932.458)" fill="white"/>
<circle cx="485.089" cy="930.69" r="1" transform="rotate(-2.9811 485.089 930.69)" fill="white"/>
<circle cx="519.043" cy="928.922" r="1" transform="rotate(-2.9811 519.043 928.922)" fill="white"/>
<circle cx="552.997" cy="927.154" r="1" transform="rotate(-2.9811 552.997 927.154)" fill="white"/>
<circle cx="586.951" cy="925.386" r="1" transform="rotate(-2.9811 586.951 925.386)" fill="white"/>
<circle cx="620.905" cy="923.617" r="1" transform="rotate(-2.9811 620.905 923.617)" fill="white"/>
<circle cx="654.859" cy="921.849" r="1" transform="rotate(-2.9811 654.859 921.849)" fill="white"/>
<circle cx="688.813" cy="920.081" r="1" transform="rotate(-2.9811 688.813 920.081)" fill="white"/>
<circle cx="722.767" cy="918.313" r="1" transform="rotate(-2.9811 722.767 918.313)" fill="white"/>
<circle cx="756.721" cy="916.544" r="1" transform="rotate(-2.9811 756.721 916.544)" fill="white"/>
<circle cx="790.675" cy="914.776" r="1" transform="rotate(-2.9811 790.675 914.776)" fill="white"/>
<circle cx="824.629" cy="913.008" r="1" transform="rotate(-2.9811 824.629 913.008)" fill="white"/>
<circle cx="858.583" cy="911.24" r="1" transform="rotate(-2.9811 858.583 911.24)" fill="white"/>
<circle cx="892.537" cy="909.472" r="1" transform="rotate(-2.9811 892.537 909.472)" fill="white"/>
<circle cx="926.491" cy="907.703" r="1" transform="rotate(-2.9811 926.491 907.703)" fill="white"/>
<circle cx="11.5018" cy="989.399" r="1" transform="rotate(-2.9811 11.5018 989.399)" fill="white"/>
<circle cx="45.4559" cy="987.631" r="1" transform="rotate(-2.9811 45.4559 987.631)" fill="white"/>
<circle cx="79.41" cy="985.863" r="1" transform="rotate(-2.9811 79.41 985.863)" fill="white"/>
<circle cx="113.364" cy="984.095" r="1" transform="rotate(-2.9811 113.364 984.095)" fill="white"/>
<circle cx="147.318" cy="982.326" r="1" transform="rotate(-2.9811 147.318 982.326)" fill="white"/>
<circle cx="181.272" cy="980.558" r="1" transform="rotate(-2.9811 181.272 980.558)" fill="white"/>
<circle cx="215.226" cy="978.79" r="1" transform="rotate(-2.9811 215.226 978.79)" fill="white"/>
<circle cx="249.18" cy="977.022" r="1" transform="rotate(-2.9811 249.18 977.022)" fill="white"/>
<circle cx="283.134" cy="975.254" r="1" transform="rotate(-2.9811 283.134 975.254)" fill="white"/>
<circle cx="317.088" cy="973.485" r="1" transform="rotate(-2.9811 317.088 973.485)" fill="white"/>
<circle cx="351.042" cy="971.717" r="1" transform="rotate(-2.9811 351.042 971.717)" fill="white"/>
<circle cx="384.996" cy="969.949" r="1" transform="rotate(-2.9811 384.996 969.949)" fill="white"/>
<circle cx="418.95" cy="968.181" r="1" transform="rotate(-2.9811 418.95 968.181)" fill="white"/>
<circle cx="452.904" cy="966.412" r="1" transform="rotate(-2.9811 452.904 966.412)" fill="white"/>
<circle cx="486.858" cy="964.644" r="1" transform="rotate(-2.9811 486.858 964.644)" fill="white"/>
<circle cx="520.812" cy="962.876" r="1" transform="rotate(-2.9811 520.812 962.876)" fill="white"/>
<circle cx="554.766" cy="961.108" r="1" transform="rotate(-2.9811 554.766 961.108)" fill="white"/>
<circle cx="588.72" cy="959.34" r="1" transform="rotate(-2.9811 588.72 959.34)" fill="white"/>
<circle cx="622.674" cy="957.571" r="1" transform="rotate(-2.9811 622.674 957.571)" fill="white"/>
<circle cx="656.628" cy="955.803" r="1" transform="rotate(-2.9811 656.628 955.803)" fill="white"/>
<circle cx="690.582" cy="954.035" r="1" transform="rotate(-2.9811 690.582 954.035)" fill="white"/>
<circle cx="724.536" cy="952.267" r="1" transform="rotate(-2.9811 724.536 952.267)" fill="white"/>
<circle cx="758.49" cy="950.498" r="1" transform="rotate(-2.9811 758.49 950.498)" fill="white"/>
<circle cx="792.444" cy="948.73" r="1" transform="rotate(-2.9811 792.444 948.73)" fill="white"/>
<circle cx="826.398" cy="946.962" r="1" transform="rotate(-2.9811 826.398 946.962)" fill="white"/>
<circle cx="860.351" cy="945.194" r="1" transform="rotate(-2.9811 860.351 945.194)" fill="white"/>
<circle cx="894.306" cy="943.426" r="1" transform="rotate(-2.9811 894.306 943.426)" fill="white"/>
<circle cx="928.26" cy="941.657" r="1" transform="rotate(-2.9811 928.26 941.657)" fill="white"/>
<circle cx="13.2699" cy="1023.35" r="1" transform="rotate(-2.9811 13.2699 1023.35)" fill="white"/>
<circle cx="47.224" cy="1021.59" r="1" transform="rotate(-2.9811 47.224 1021.59)" fill="white"/>
<circle cx="81.1781" cy="1019.82" r="1" transform="rotate(-2.9811 81.1781 1019.82)" fill="white"/>
<circle cx="115.132" cy="1018.05" r="1" transform="rotate(-2.9811 115.132 1018.05)" fill="white"/>
<circle cx="149.086" cy="1016.28" r="1" transform="rotate(-2.9811 149.086 1016.28)" fill="white"/>
<circle cx="183.04" cy="1014.51" r="1" transform="rotate(-2.9811 183.04 1014.51)" fill="white"/>
<circle cx="216.994" cy="1012.74" r="1" transform="rotate(-2.9811 216.994 1012.74)" fill="white"/>
<circle cx="250.948" cy="1010.98" r="1" transform="rotate(-2.9811 250.948 1010.98)" fill="white"/>
<circle cx="284.902" cy="1009.21" r="1" transform="rotate(-2.9811 284.902 1009.21)" fill="white"/>
<circle cx="318.856" cy="1007.44" r="1" transform="rotate(-2.9811 318.856 1007.44)" fill="white"/>
<circle cx="352.81" cy="1005.67" r="1" transform="rotate(-2.9811 352.81 1005.67)" fill="white"/>
<circle cx="386.764" cy="1003.9" r="1" transform="rotate(-2.9811 386.764 1003.9)" fill="white"/>
<circle cx="420.718" cy="1002.13" r="1" transform="rotate(-2.9811 420.718 1002.13)" fill="white"/>
<circle cx="454.672" cy="1000.37" r="1" transform="rotate(-2.9811 454.672 1000.37)" fill="white"/>
<circle cx="488.626" cy="998.598" r="1" transform="rotate(-2.9811 488.626 998.598)" fill="white"/>
<circle cx="522.58" cy="996.83" r="1" transform="rotate(-2.9811 522.58 996.83)" fill="white"/>
<circle cx="556.534" cy="995.062" r="1" transform="rotate(-2.9811 556.534 995.062)" fill="white"/>
<circle cx="590.488" cy="993.294" r="1" transform="rotate(-2.9811 590.488 993.294)" fill="white"/>
<circle cx="624.442" cy="991.525" r="1" transform="rotate(-2.9811 624.442 991.525)" fill="white"/>
<circle cx="658.396" cy="989.757" r="1" transform="rotate(-2.9811 658.396 989.757)" fill="white"/>
<circle cx="692.35" cy="987.989" r="1" transform="rotate(-2.9811 692.35 987.989)" fill="white"/>
<circle cx="726.304" cy="986.221" r="1" transform="rotate(-2.9811 726.304 986.221)" fill="white"/>
<circle cx="760.258" cy="984.452" r="1" transform="rotate(-2.9811 760.258 984.452)" fill="white"/>
<circle cx="794.212" cy="982.684" r="1" transform="rotate(-2.9811 794.212 982.684)" fill="white"/>
<circle cx="828.166" cy="980.916" r="1" transform="rotate(-2.9811 828.166 980.916)" fill="white"/>
<circle cx="862.12" cy="979.148" r="1" transform="rotate(-2.9811 862.12 979.148)" fill="white"/>
<circle cx="896.074" cy="977.38" r="1" transform="rotate(-2.9811 896.074 977.38)" fill="white"/>
<circle cx="930.028" cy="975.611" r="1" transform="rotate(-2.9811 930.028 975.611)" fill="white"/>
<circle cx="660.164" cy="1023.71" r="1" transform="rotate(-2.9811 660.164 1023.71)" fill="white"/>
<circle cx="694.118" cy="1021.94" r="1" transform="rotate(-2.9811 694.118 1021.94)" fill="white"/>
<circle cx="728.072" cy="1020.17" r="1" transform="rotate(-2.9811 728.072 1020.17)" fill="white"/>
<circle cx="762.026" cy="1018.41" r="1" transform="rotate(-2.9811 762.026 1018.41)" fill="white"/>
<circle cx="795.98" cy="1016.64" r="1" transform="rotate(-2.9811 795.98 1016.64)" fill="white"/>
<circle cx="829.934" cy="1014.87" r="1" transform="rotate(-2.9811 829.934 1014.87)" fill="white"/>
<circle cx="863.888" cy="1013.1" r="1" transform="rotate(-2.9811 863.888 1013.1)" fill="white"/>
<circle cx="897.842" cy="1011.33" r="1" transform="rotate(-2.9811 897.842 1011.33)" fill="white"/>
<circle cx="931.796" cy="1009.57" r="1" transform="rotate(-2.9811 931.796 1009.57)" fill="white"/>
</mask>
<g mask="url(#mask0_593_55715)">
<rect x="2" width="945" height="1020" fill="url(#paint0_linear_593_55715)" fill-opacity="0.6"/>
</g>
<defs>
<linearGradient id="paint0_linear_593_55715" x1="-268.852" y1="-229.5" x2="1459.76" y2="-84.4997" gradientUnits="userSpaceOnUse">
<stop stop-color="white"/>
<stop offset="1" stop-color="white" stop-opacity="0"/>
</linearGradient>
</defs>
</svg>
