<svg width="118" height="32" viewBox="0 0 118 32" fill="none" xmlns="http://www.w3.org/2000/svg">
<g clip-path="url(#clip0_1478_26764)">
<path fill-rule="evenodd" clip-rule="evenodd" d="M0 27.36C6.03655 27.1997 10.8809 22.2556 10.8809 16.18C10.8809 10.1044 6.03655 5.16026 0 4.99998V27.36Z" fill="#111111"/>
<path d="M17.9844 21.7019V9.69536H21.8779C23.2272 9.69536 24.405 9.94693 25.4113 10.4501C26.4175 10.9418 27.1894 11.645 27.7268 12.5598C28.2757 13.4631 28.5501 14.5094 28.5501 15.6986C28.5501 16.8878 28.2757 17.9398 27.7268 18.8546C27.1894 19.758 26.4175 20.4612 25.4113 20.9643C24.405 21.456 23.2272 21.7019 21.8779 21.7019H17.9844ZM21.8608 19.4721C22.7298 19.4721 23.4845 19.3177 24.1248 19.009C24.7652 18.6888 25.2512 18.2428 25.5828 17.6711C25.9258 17.0994 26.0973 16.4419 26.0973 15.6986C26.0973 14.9554 25.9258 14.2979 25.5828 13.7261C25.2512 13.1544 24.7652 12.7141 24.1248 12.4054C23.4845 12.0852 22.7298 11.9251 21.8608 11.9251H20.3857V19.4721H21.8608Z" fill="#111111"/>
<path d="M33.8003 12.7656C34.6007 12.7656 35.3497 12.96 36.0472 13.3488C36.7562 13.7376 37.3165 14.2693 37.7281 14.9439C38.1512 15.6186 38.3627 16.3733 38.3627 17.208C38.3627 17.5167 38.3284 17.8426 38.2598 18.1857H31.5705C31.6963 18.7803 31.9536 19.2434 32.3423 19.575C32.7311 19.8952 33.2228 20.0553 33.8174 20.0553C34.2748 20.0553 34.6579 19.9752 34.9666 19.8151C35.2868 19.6436 35.5498 19.392 35.7556 19.0604H38.054C37.7224 19.8952 37.1907 20.5813 36.4589 21.1187C35.727 21.6447 34.8408 21.9077 33.8003 21.9077C32.9998 21.9077 32.2451 21.719 31.5362 21.3417C30.8272 20.9529 30.2612 20.4155 29.8381 19.7294C29.415 19.0318 29.2035 18.2371 29.2035 17.3452C29.2035 16.4533 29.415 15.6586 29.8381 14.9611C30.2612 14.2636 30.8215 13.7261 31.519 13.3488C32.228 12.96 32.9884 12.7656 33.8003 12.7656ZM33.8003 14.618C33.2285 14.618 32.7483 14.7781 32.3595 15.0983C31.9821 15.407 31.7249 15.8473 31.5876 16.419H36.03C35.9157 15.8816 35.6699 15.447 35.2925 15.1154C34.9266 14.7838 34.4292 14.618 33.8003 14.618Z" fill="#111111"/>
<path d="M42.8156 21.9077C42.0723 21.9077 41.4148 21.7819 40.8431 21.5303C40.2714 21.2788 39.8254 20.93 39.5052 20.4841C39.1851 20.0381 39.0078 19.535 38.9735 18.9747H41.2376C41.2719 19.2605 41.432 19.5064 41.7179 19.7122C42.0037 19.918 42.3696 20.021 42.8156 20.021C43.2272 20.021 43.5474 19.9581 43.7761 19.8323C44.0162 19.6951 44.1363 19.4892 44.1363 19.2148C44.1363 18.9404 43.9991 18.7403 43.7247 18.6145C43.4502 18.4773 43.0157 18.34 42.4211 18.2028C41.7579 18.0427 41.209 17.8769 40.7745 17.7054C40.3514 17.5339 39.9855 17.2595 39.6768 16.8821C39.368 16.5048 39.2136 15.9902 39.2136 15.3384C39.2136 14.8582 39.3623 14.4236 39.6596 14.0349C39.9683 13.6346 40.3857 13.3259 40.9117 13.1086C41.4377 12.8799 42.0323 12.7656 42.6955 12.7656C43.313 12.7656 43.8847 12.8914 44.4107 13.1429C44.9367 13.3831 45.3598 13.7204 45.68 14.1549C46.0116 14.578 46.1889 15.0583 46.2117 15.5957H43.9819C43.9591 15.3213 43.8219 15.0983 43.5703 14.9268C43.3302 14.7438 43.01 14.6523 42.6098 14.6523C42.2667 14.6523 41.9923 14.7095 41.7865 14.8239C41.5921 14.9382 41.4949 15.0983 41.4949 15.3041C41.4949 15.5785 41.6321 15.7844 41.9065 15.9216C42.1924 16.0588 42.6441 16.196 43.2616 16.3332C43.9133 16.4933 44.4451 16.6591 44.8567 16.8307C45.2798 16.9907 45.6457 17.2537 45.9544 17.6197C46.2632 17.9741 46.4175 18.4544 46.4175 19.0604C46.4175 19.9523 46.0859 20.6499 45.4227 21.153C44.7595 21.6561 43.8905 21.9077 42.8156 21.9077Z" fill="#111111"/>
<path d="M49.9923 21.7019H47.7111V12.9714H49.9923V21.7019ZM50.0438 11.5135H47.6253V9.45523H50.0438V11.5135Z" fill="#111111"/>
<path d="M58.0462 12.9714H60.2416V20.93C60.2416 21.8105 60.0701 22.5995 59.7271 23.297C59.3955 23.9945 58.8866 24.5491 58.2005 24.9608C57.5145 25.3724 56.674 25.5783 55.6792 25.5783C54.4671 25.5783 53.4837 25.2752 52.729 24.6692C51.9743 24.0631 51.4826 23.2627 51.2539 22.2679H53.5866C53.9983 23.0683 54.6901 23.4685 55.662 23.4685C56.3938 23.4685 56.9599 23.2513 57.3601 22.8168C57.7603 22.3937 57.9604 21.8505 57.9604 21.1873V20.5012C57.2858 21.1759 56.3881 21.5132 55.2675 21.5132C54.5357 21.5132 53.8439 21.336 53.1921 20.9815C52.5518 20.6156 52.0315 20.101 51.6313 19.4378C51.2311 18.7746 51.0309 18.0084 51.0309 17.1394C51.0309 16.2704 51.2253 15.5042 51.6141 14.841C52.0143 14.1778 52.5346 13.6689 53.175 13.3145C53.8267 12.9486 54.5185 12.7656 55.2504 12.7656C55.8564 12.7656 56.3824 12.8571 56.8284 13.04C57.2858 13.2116 57.6917 13.486 58.0462 13.8633V12.9714ZM55.662 19.4892C56.3481 19.4892 56.9141 19.2663 57.3601 18.8203C57.8175 18.3743 58.0462 17.814 58.0462 17.1394C58.0462 16.4762 57.8175 15.9216 57.3601 15.4756C56.9141 15.0182 56.3481 14.7895 55.662 14.7895C54.9645 14.7895 54.3985 15.0125 53.964 15.4585C53.5294 15.9044 53.3122 16.4647 53.3122 17.1394C53.3122 17.814 53.5294 18.3743 53.964 18.8203C54.3985 19.2663 54.9645 19.4892 55.662 19.4892Z" fill="#111111"/>
<path d="M66.6685 12.7656C67.3546 12.7656 67.9663 12.9314 68.5038 13.263C69.0412 13.5832 69.4586 14.0291 69.7559 14.6009C70.0646 15.1726 70.219 15.813 70.219 16.5219V21.7019H67.9377V16.9507C67.9377 16.3218 67.7719 15.8187 67.4403 15.4413C67.1202 15.064 66.6742 14.8753 66.1025 14.8753C65.5422 14.8753 65.079 15.0697 64.7131 15.4585C64.3472 15.8358 64.1643 16.3332 64.1643 16.9507V21.7019H61.883V12.9714H64.0785V13.8633C64.7989 13.1315 65.6622 12.7656 66.6685 12.7656Z" fill="#111111"/>
<path d="M83.0678 9.69536V11.9251H78.8484V14.7552H82.8963V16.985H78.8484V21.7019H76.4471V9.69536H83.0678Z" fill="#111111"/>
<path d="M88.1122 21.9077C87.2774 21.9077 86.4941 21.719 85.7623 21.3417C85.0419 20.9529 84.4645 20.4155 84.0299 19.7294C83.5954 19.0318 83.3782 18.2371 83.3782 17.3452C83.3782 16.4533 83.5954 15.6586 84.0299 14.9611C84.4645 14.2636 85.0419 13.7261 85.7623 13.3488C86.4941 12.96 87.2774 12.7656 88.1122 12.7656C88.9469 12.7656 89.7245 12.96 90.4448 13.3488C91.1767 13.7261 91.7598 14.2636 92.1944 14.9611C92.6289 15.6586 92.8462 16.4533 92.8462 17.3452C92.8462 18.2371 92.6289 19.0318 92.1944 19.7294C91.7598 20.4155 91.1767 20.9529 90.4448 21.3417C89.7245 21.719 88.9469 21.9077 88.1122 21.9077ZM88.1122 19.798C88.8097 19.798 89.3929 19.5636 89.8617 19.0947C90.3305 18.6259 90.5649 18.0427 90.5649 17.3452C90.5649 16.6363 90.3305 16.0474 89.8617 15.5785C89.3929 15.1097 88.8097 14.8753 88.1122 14.8753C87.4146 14.8753 86.8315 15.1097 86.3626 15.5785C85.8938 16.0474 85.6594 16.6363 85.6594 17.3452C85.6594 18.0427 85.8938 18.6259 86.3626 19.0947C86.8315 19.5636 87.4146 19.798 88.1122 19.798Z" fill="#111111"/>
<path d="M99.4525 12.8514V14.9611H98.3548C97.7488 14.9611 97.2342 15.1669 96.8111 15.5785C96.388 15.9902 96.1765 16.5219 96.1765 17.1737V21.7019H93.8952V12.9714H96.0907V13.9491C96.8111 13.2173 97.6973 12.8514 98.7493 12.8514H99.4525Z" fill="#111111"/>
<path d="M104.076 21.9077C103.242 21.9077 102.458 21.719 101.727 21.3417C101.006 20.9529 100.429 20.4155 99.9942 19.7294C99.5596 19.0318 99.3424 18.2371 99.3424 17.3452C99.3424 16.4533 99.5596 15.6586 99.9942 14.9611C100.429 14.2636 101.006 13.7261 101.727 13.3488C102.458 12.96 103.242 12.7656 104.076 12.7656C105.094 12.7656 106.02 13.0572 106.855 13.6404C107.701 14.2235 108.273 15.0468 108.57 16.1103H106.22C105.98 15.6986 105.677 15.3899 105.311 15.184C104.945 14.9782 104.534 14.8753 104.076 14.8753C103.379 14.8753 102.796 15.1097 102.327 15.5785C101.858 16.0474 101.624 16.6363 101.624 17.3452C101.624 18.0427 101.858 18.6259 102.327 19.0947C102.796 19.5636 103.379 19.798 104.076 19.798C104.534 19.798 104.945 19.6951 105.311 19.4892C105.677 19.2834 105.98 18.9804 106.22 18.5802H108.57C108.273 19.6436 107.701 20.4669 106.855 21.0501C106.02 21.6218 105.094 21.9077 104.076 21.9077Z" fill="#111111"/>
<path d="M113.437 12.7656C114.238 12.7656 114.987 12.96 115.684 13.3488C116.393 13.7376 116.953 14.2693 117.365 14.9439C117.788 15.6186 118 16.3733 118 17.208C118 17.5167 117.965 17.8426 117.897 18.1857H111.207C111.333 18.7803 111.59 19.2434 111.979 19.575C112.368 19.8952 112.86 20.0553 113.454 20.0553C113.912 20.0553 114.295 19.9752 114.604 19.8151C114.924 19.6436 115.187 19.392 115.393 19.0604H117.691C117.359 19.8952 116.828 20.5813 116.096 21.1187C115.364 21.6447 114.478 21.9077 113.437 21.9077C112.637 21.9077 111.882 21.719 111.173 21.3417C110.464 20.9529 109.898 20.4155 109.475 19.7294C109.052 19.0318 108.84 18.2371 108.84 17.3452C108.84 16.4533 109.052 15.6586 109.475 14.9611C109.898 14.2636 110.458 13.7261 111.156 13.3488C111.865 12.96 112.625 12.7656 113.437 12.7656ZM113.437 14.618C112.865 14.618 112.385 14.7781 111.996 15.0983C111.619 15.407 111.362 15.8473 111.225 16.419H115.667C115.553 15.8816 115.307 15.447 114.929 15.1154C114.563 14.7838 114.066 14.618 113.437 14.618Z" fill="#111111"/>
</g>
<defs>
<clipPath id="clip0_1478_26764">
<rect width="118" height="32" fill="white"/>
</clipPath>
</defs>
</svg>
