<svg width="29" height="27" viewBox="0 0 29 27" fill="none" xmlns="http://www.w3.org/2000/svg">
<path d="M13.6743 0.254053C15.1073 0.254053 16.5411 0.248883 17.9741 0.255531C20.5115 0.267349 22.42 1.3953 23.7269 3.53669C24.393 4.62845 25.016 5.74605 25.6576 6.85258C26.4602 8.23536 27.2605 9.61889 28.0638 11.0009C28.9717 12.5625 28.9813 14.1262 28.0771 15.69C26.6486 18.1594 25.2252 20.6324 23.7825 23.0937C22.5268 25.2351 20.6413 26.4125 18.1506 26.462C15.137 26.5211 12.1211 26.5011 9.10674 26.4701C7.38594 26.4524 6.10275 25.6288 5.24309 24.1463C3.82417 21.6991 2.3956 19.2578 0.987066 16.8054C-0.323565 14.5229 -0.33024 12.2197 0.974456 9.93504C2.37706 7.47897 3.80414 5.03693 5.22751 2.59268C6.13168 1.03926 7.4705 0.230416 9.29959 0.25036C10.7571 0.266611 12.2153 0.253315 13.6736 0.254053H13.6743ZM6.55743 13.3181C6.55743 14.8435 6.55743 16.3696 6.55743 17.8949C6.55743 19.5924 6.57375 21.2906 6.54779 22.988C6.54037 23.4445 6.68797 23.7075 7.09741 23.9018C7.5862 24.133 8.07055 24.3908 8.51262 24.6995C8.95691 25.0098 9.30701 24.9847 9.77578 24.7099C13.3494 22.6194 16.9409 20.5593 20.5271 18.4896C22.4905 17.3564 24.4501 16.2152 26.4231 15.0983C26.7695 14.9026 26.92 14.6862 26.8963 14.2858C26.8622 13.7222 26.8555 13.1519 26.8978 12.5891C26.9356 12.0853 26.7628 11.8002 26.3103 11.5461C23.9264 10.2054 21.5633 8.8263 19.1942 7.45902C16.0345 5.63673 12.8695 3.8233 9.72238 1.97958C9.30108 1.73287 8.98955 1.6952 8.58605 1.97515C8.18329 2.25511 7.74864 2.50478 7.29842 2.69757C6.72358 2.94354 6.53369 3.30623 6.54111 3.94222C6.5782 7.06679 6.55817 10.1921 6.55817 13.3167L6.55743 13.3181Z" fill="#111111"/>
</svg>