<svg width="23" height="21" viewBox="0 0 23 21" fill="none" xmlns="http://www.w3.org/2000/svg">
<path d="M10.9394 0.00324275C12.0858 0.00324275 13.2329 -0.00089379 14.3793 0.00442462C16.4092 0.0138796 17.936 0.916237 18.9815 2.62936C19.5144 3.50276 20.0128 4.39684 20.5261 5.28206C21.1681 6.38829 21.8084 7.49511 22.451 8.60075C23.1773 9.84998 23.185 11.101 22.4617 12.352C21.3189 14.3275 20.1802 16.3059 19.026 18.2749C18.0214 19.9881 16.5131 20.93 14.5205 20.9696C12.1096 21.0169 9.6969 21.0009 7.28539 20.9761C5.90875 20.9619 4.8822 20.303 4.19447 19.117C3.05933 17.1593 1.91648 15.2062 0.789653 13.2443C-0.258852 11.4183 -0.264192 9.57579 0.779565 7.74803C1.90165 5.78317 3.04331 3.82954 4.18201 1.87414C4.90534 0.631406 5.9764 -0.0156672 7.43967 0.00028808C8.60567 0.0132886 9.77225 0.00265182 10.9388 0.00324275H10.9394ZM5.24594 10.4545C5.24594 11.6748 5.24594 12.8957 5.24594 14.1159C5.24594 15.4739 5.259 16.8325 5.23823 18.1904C5.2323 18.5556 5.35038 18.766 5.67793 18.9214C6.06896 19.1064 6.45644 19.3126 6.8101 19.5596C7.16553 19.8078 7.44561 19.7877 7.82062 19.5679C10.6795 17.8956 13.5527 16.2474 16.4217 14.5916C17.9924 13.6851 19.5601 12.7722 21.1385 11.8787C21.4156 11.7221 21.536 11.5489 21.517 11.2286C21.4897 10.7778 21.4844 10.3215 21.5182 9.87126C21.5485 9.46824 21.4102 9.24014 21.0483 9.03686C19.1411 7.96431 17.2506 6.86104 15.3554 5.76722C12.8276 4.30938 10.2956 2.85864 7.7779 1.38367C7.44086 1.18629 7.19164 1.15616 6.86884 1.38012C6.54664 1.60408 6.19891 1.80382 5.83873 1.95805C5.37886 2.15484 5.22696 2.44498 5.23289 2.95378C5.26256 5.45343 5.24654 7.95368 5.24654 10.4533L5.24594 10.4545Z" fill="white"/>
</svg>
