<svg width="103" height="23" viewBox="0 0 103 23" fill="none" xmlns="http://www.w3.org/2000/svg">
<path d="M43.5689 5.33963H26.9878L28.3609 0.5H44.942L43.5689 5.33963Z" fill="#CF202E"/>
<path d="M32.3291 13.5129H41.2399L42.6225 8.67328H26.0414L22.1021 22.4995H29.7724L32.3291 13.5129Z" fill="#CF202E"/>
<path fill-rule="evenodd" clip-rule="evenodd" d="M51.1353 17.5034C50.9364 17.3925 50.8133 17.2448 50.7565 17.06C50.747 17.0046 50.7376 16.9492 50.7376 16.8938C50.7376 16.8384 50.747 16.7922 50.766 16.7368L53.7678 6.17087C53.853 5.86608 54.0046 5.65365 54.2224 5.53359C54.4402 5.41352 54.8189 5.34887 55.3587 5.34887H63.6445L65.0176 0.5H53.408C51.2963 0.5 49.819 0.74937 48.9573 1.21117C48.0956 1.67296 47.499 2.5042 47.1581 3.71411L42.8684 18.7779C42.8021 18.9996 42.7642 19.2212 42.7548 19.4337C42.7453 19.6646 42.7642 19.8862 42.8211 20.1079C43.0199 20.8468 43.5123 21.4194 44.2983 21.8627C45.0748 22.2876 46.0596 22.5092 47.2244 22.5092H59.3832L60.7563 17.6696H51.8739C51.5804 17.6604 51.3342 17.605 51.1353 17.5034Z" fill="#CF202E"/>
<path fill-rule="evenodd" clip-rule="evenodd" d="M5.31131 0.5L0.112542 18.7779C0.0462549 18.9996 0.0178463 19.2212 -0.0010927 19.4337C-0.0105622 19.6646 0.00837683 19.8862 0.065194 20.1079C0.264054 20.8468 0.756469 21.4194 1.54244 21.8627C2.31894 22.2876 3.30377 22.5092 4.46852 22.5092H13.1142C15.2259 22.5092 16.7031 22.2691 17.5649 21.7981C18.4266 21.3363 19.0232 20.505 19.3641 19.2951L24.7144 0.5H17.044L12.3945 16.8476C12.3093 17.1524 12.1578 17.3648 11.94 17.4849C11.7222 17.605 11.3434 17.6696 10.8036 17.6696H9.48737C9.19382 17.6696 8.93814 17.6142 8.73928 17.5034C8.54042 17.3925 8.41731 17.2448 8.3605 17.06C8.35103 17.0046 8.34156 16.9492 8.34156 16.8846C8.34156 16.8291 8.35103 16.783 8.36997 16.7275L12.9816 0.5H5.31131Z" fill="#CF202E"/>
<path d="M101.305 20.0809H63.9001L63.2183 22.5007H100.623L101.305 20.0809Z" fill="#CF202E"/>
<path d="M71.2197 10.9649L70.6042 13.1816H72.3181L71.7216 15.2227C71.1818 15.3335 70.4053 15.4259 69.8371 15.4259C68.644 15.4259 68.3125 14.9826 68.3883 14.2252C68.4072 14.0405 68.4546 13.8188 68.5114 13.6157L69.7424 9.33942C70.0455 8.24958 70.6042 7.6123 72.0719 7.6123C73.0757 7.6123 74.6571 7.79701 75.6514 8.07409L76.5226 5.7374C75.5662 5.44185 73.909 5.1463 72.6212 5.1463C69.2405 5.1463 67.7538 6.49475 67.1099 8.75755L65.5948 14.0959C65.5285 14.3361 65.4622 14.6316 65.4338 14.8717C65.2444 16.6635 66.4092 17.8549 69.3352 17.8549C71.0587 17.8549 72.6212 17.5409 73.8238 17.0607L75.5662 10.9649H71.2197Z" fill="#CF202E"/>
<path d="M81.6835 17.6791H78.8711L79.8275 14.1232L78.2935 5.33063H81.1248L82.0055 11.0384L85.8596 5.33063H89.0698L82.64 14.1232L81.6835 17.6791Z" fill="#CF202E"/>
<path d="M99.1737 10.9094L95.5564 16.0538H92.706L92.1189 10.9094L89.8462 17.6609H87.1001L91.2193 5.34015H94.0318L94.8746 13.2923L100.215 5.34015H102.999L100.395 17.6609H97.6586L99.1737 10.9094Z" fill="#CF202E"/>
</svg>
