<svg width="103" height="25" viewBox="0 0 103 25" fill="none" xmlns="http://www.w3.org/2000/svg">
<path d="M8.2105 9.97363V9.02622C7.8947 8.94733 7.5789 8.94739 7.26316 8.94739C3.23686 8.94739 0 12.1841 0 16.2105C0 18.6578 1.26315 20.8683 3.07895 22.1315L3 22.0525C1.81574 20.7894 1.1842 19.0527 1.1842 17.2369C1.1842 13.2105 4.3421 10.0526 8.2105 9.97363Z" fill="#25F4EE"/>
<path d="M8.36871 20.5526C10.1845 20.5526 11.6056 19.1315 11.6845 17.3158V1.5263H14.5266C14.4477 1.21056 14.4477 0.894754 14.4477 0.5H10.5003V16.2894C10.4214 18.0263 9.00032 19.4473 7.18451 19.4473C6.63192 19.4473 6.07932 19.2894 5.68457 19.0526C6.31612 19.921 7.26346 20.5526 8.36877 20.5526H8.36871ZM19.9739 6.89476V5.94742C18.8686 5.94742 17.8423 5.63161 16.9739 5.07896C17.7633 5.94742 18.7896 6.65797 19.9738 6.89476H19.9739Z" fill="#25F4EE"/>
<path d="M16.9735 5.07894C16.1051 4.13159 15.6314 2.86844 15.6314 1.44739H14.5262C14.8419 3.02634 15.7893 4.28949 16.9735 5.07894ZM7.26301 12.8157C5.44727 12.8157 3.94727 14.3157 3.94727 16.1315C3.94727 17.3946 4.73677 18.5 5.76307 19.0526C5.36832 18.5 5.13147 17.8684 5.13147 17.1579C5.13147 15.3421 6.63147 13.842 8.44728 13.842C8.76308 13.842 9.07882 13.921 9.39462 13.9999V9.97364C9.07882 9.89469 8.76308 9.89469 8.44728 9.89469H8.28937V12.8947C7.89462 12.8947 7.57882 12.8157 7.26307 12.8157H7.26301Z" fill="#FE2C55"/>
<path d="M19.9738 6.89478V9.89472C17.9212 9.89472 16.0265 9.26318 14.5265 8.15793V16.2105C14.5265 20.2368 11.2896 23.4736 7.26337 23.4736C5.68436 23.4736 4.26336 23 3.0791 22.2105C4.4212 23.6315 6.31596 24.4999 8.36862 24.4999C12.3949 24.4999 15.6317 21.2631 15.6317 17.2368V9.18423C17.2108 10.2895 19.1054 10.9211 21.0791 10.9211V6.97373C20.7634 6.97373 20.3686 6.97373 19.9739 6.89478H19.9738Z" fill="#FE2C55"/>
<path d="M14.526 16.2105V8.1579C16.105 9.26321 17.9997 9.89469 19.9734 9.89469V6.81573C18.7892 6.57894 17.7629 5.94734 16.9734 5.07894C15.7102 4.28943 14.8418 2.94739 14.605 1.44739H11.6839V17.2369C11.6049 18.9737 10.184 20.3947 8.36815 20.3947C7.26284 20.3947 6.31549 19.8421 5.68394 19.0526C4.65758 18.5788 3.94709 17.4736 3.94709 16.2104C3.94709 14.3947 5.44703 12.8948 7.26284 12.8948C7.57864 12.8948 7.89444 12.9736 8.21025 13.0526V9.97364C4.26289 10.0526 1.10498 13.2895 1.10498 17.2369C1.10498 19.1316 1.81548 20.8684 3.07863 22.2105C4.26289 23 5.68394 23.5526 7.26284 23.5526C11.2891 23.4737 14.526 20.1578 14.526 16.2104V16.2105ZM26.0049 5.61639H38.8734L37.7186 9.32855H34.419V22.9395H30.2944V9.24592H26.0874L26.0049 5.61639ZM59.9913 5.61639H73.1898L72.0349 9.32855H68.4053V22.9395H64.1983V9.24592H59.9913V5.61639ZM39.6984 11.1433H43.8229V22.8569H39.6984V11.1433ZM45.4728 5.53383H49.5973V13.6179L53.7218 9.57588H58.6713L53.4744 14.6078L59.2488 22.8569H54.7117L50.8347 17.0825L49.5973 18.2374V22.7744H45.4728V5.53383ZM89.1103 5.53383H93.2349V13.6179L97.3594 9.57588H102.309L97.1119 14.6078L102.886 22.8569H98.3493L94.4722 17.0825L93.2349 18.2374V22.7744H89.1103V5.53383ZM41.7607 9.74096C42.8996 9.74096 43.8229 8.81764 43.8229 7.67868C43.8229 6.53977 42.8996 5.61639 41.7607 5.61639C40.6218 5.61639 39.6984 6.53971 39.6984 7.67868C39.6984 8.81764 40.6218 9.74096 41.7607 9.74096Z" fill="white"/>
<path d="M72.6124 15.8451C72.6124 12.133 75.4996 9.08083 79.1292 8.83337H78.5518C74.6746 8.83337 71.4575 11.9681 71.4575 15.9276C71.4575 19.8047 74.5921 23.0218 78.5517 23.0218H79.1291C75.4996 22.6094 72.6124 19.5572 72.6124 15.8451Z" fill="#25F4EE"/>
<path d="M80.6965 8.75085H80.0366C83.6663 8.99831 86.5534 12.0505 86.5534 15.7626C86.5534 19.4747 83.6663 22.5268 80.0366 22.7743H80.6965C84.5736 22.7743 87.7908 19.6396 87.7908 15.6801C87.7908 11.968 84.6562 8.75085 80.6965 8.75085Z" fill="#FE2C55"/>
<path d="M79.624 8.75085C75.7469 8.75085 72.5298 11.8855 72.5298 15.8451C72.5298 19.7221 75.6644 22.9393 79.624 22.9393C83.5835 22.9393 86.7182 19.8046 86.7182 15.8451C86.7182 11.968 83.5011 8.75085 79.624 8.75085ZM79.624 19.3097C77.7267 19.3097 76.1594 17.7423 76.1594 15.8451C76.1594 13.9478 77.7267 12.3804 79.624 12.3804C81.5213 12.3804 83.0886 13.9478 83.0886 15.8451C83.0886 17.7424 81.5212 19.3097 79.624 19.3097Z" fill="white"/>
</svg>
